<svg xmlns="http://www.w3.org/2000/svg" xmlns:xlink="http://www.w3.org/1999/xlink" width="500" zoomAndPan="magnify" viewBox="0 0 375 374.999991" height="500" preserveAspectRatio="xMidYMid meet" version="1.0"><defs><clipPath id="e9df7c99b2"><path d="M 14 13 L 361 13 L 361 362.316406 L 14 362.316406 Z M 14 13 " clip-rule="nonzero"/></clipPath></defs><g clip-path="url(#e9df7c99b2)"><path fill="#dfb0b0" d="M 358.6875 123.074219 C 356.710938 111.597656 353.511719 100.480469 348.738281 89.816406 C 341.636719 73.9375 331.921875 59.953125 319.15625 48.089844 C 308.617188 38.292969 296.738281 30.605469 283.589844 24.828125 C 268.109375 18.027344 251.867188 14.359375 235.035156 13.515625 C 221.035156 12.804688 207.121094 13.859375 193.347656 16.6875 C 172.746094 20.917969 153.527344 28.644531 135.371094 39.167969 C 131.582031 41.363281 128.035156 43.9375 123.804688 45.433594 C 111.957031 49.625 100.773438 55.226562 90.183594 62.015625 C 78.925781 69.230469 68.648438 77.625 59.371094 87.273438 C 53.511719 93.363281 48.140625 99.84375 43.269531 106.742188 C 35.125 118.285156 28.640625 130.714844 23.734375 143.980469 C 18.09375 159.21875 14.941406 174.957031 14.183594 191.15625 C 13.898438 197.074219 13.980469 203.007812 14.371094 208.945312 C 14.800781 215.480469 15.539062 221.957031 16.792969 228.355469 C 20.863281 249.109375 28.699219 268.359375 40.320312 286.027344 C 48.875 299.019531 59.070312 310.5625 70.875 320.703125 C 81.601562 329.90625 93.292969 337.613281 105.917969 343.925781 C 115.945312 348.933594 126.359375 352.945312 137.171875 355.90625 C 150.816406 359.640625 164.6875 361.789062 178.84375 362.164062 C 183.726562 362.296875 188.597656 362.164062 193.46875 362.046875 C 197 361.964844 200.542969 361.695312 204.042969 361.265625 C 212.941406 360.167969 221.75 358.558594 230.410156 356.210938 C 242.058594 353.046875 253.292969 348.789062 264.03125 343.308594 C 275.714844 337.339844 286.589844 330.140625 296.644531 321.6875 C 305.296875 314.417969 313.117188 306.378906 320.125 297.550781 C 328.902344 286.480469 336.042969 274.40625 341.707031 261.453125 C 346.148438 251.285156 349.460938 240.738281 351.730469 229.898438 C 354.054688 218.820312 355.128906 207.582031 354.777344 196.234375 C 354.722656 194.5625 354.996094 192.957031 355.390625 191.347656 C 358.820312 177.492188 360.945312 163.46875 360.652344 148.378906 C 360.964844 140.382812 360.164062 131.683594 358.6875 123.074219 Z M 348.785156 219.742188 C 347.445312 229.246094 345.375 238.585938 342.242188 247.679688 C 337.636719 261.035156 331.464844 273.617188 323.472656 285.296875 C 318.109375 293.136719 312.148438 300.445312 305.539062 307.277344 C 295.277344 317.882812 283.757812 326.859375 271.066406 334.339844 C 255.574219 343.46875 239.023438 349.925781 221.476562 353.800781 C 214.6875 355.300781 207.828125 356.316406 200.902344 357.011719 C 195.539062 357.542969 190.1875 357.640625 184.820312 357.734375 C 163.058594 358.097656 142.140625 353.90625 121.90625 346.152344 C 105.636719 339.917969 90.726562 331.214844 77.214844 320.234375 C 62.886719 308.578125 50.828125 294.878906 41.203125 279.042969 C 32.78125 265.183594 26.632812 250.425781 22.808594 234.695312 C 20.710938 226.09375 19.40625 217.363281 18.808594 208.507812 C 18.398438 202.570312 18.324219 196.628906 18.617188 190.722656 C 19.234375 178.5 21.324219 166.492188 24.835938 154.746094 C 27.761719 144.996094 31.574219 135.605469 36.335938 126.617188 C 41.839844 116.214844 48.386719 106.527344 56.054688 97.574219 C 66.507812 85.355469 78.46875 74.90625 91.953125 66.203125 C 97.59375 62.5625 103.359375 59.113281 109.519531 56.398438 C 109.644531 56.507812 109.757812 56.621094 109.871094 56.730469 C 105.835938 60.257812 101.679688 63.660156 97.773438 67.335938 C 85.082031 79.28125 73.921875 92.535156 64.503906 107.214844 C 55.816406 120.746094 48.734375 135.058594 43.445312 150.269531 C 39.664062 161.144531 36.890625 172.257812 35.144531 183.613281 C 34.261719 189.335938 33.8125 195.113281 33.46875 200.917969 C 33.152344 206.304688 33.285156 211.664062 33.5625 217.03125 C 34.140625 228.472656 36.03125 239.695312 39.246094 250.695312 C 43.199219 264.234375 49.113281 276.875 57.117188 288.492188 C 68.464844 304.929688 82.921875 317.894531 100.449219 327.46875 C 112.238281 333.902344 124.734375 338.351562 137.847656 341.027344 C 146.152344 342.71875 154.574219 343.5625 163.082031 343.8125 C 188.652344 344.566406 212.984375 339.296875 236.425781 329.3125 C 253.738281 321.9375 269.671875 312.246094 284.289062 300.433594 C 296.304688 290.71875 307.121094 279.804688 316.816406 267.746094 C 326.011719 256.320312 333.859375 244.050781 340.523438 231.003906 C 343.6875 224.800781 346.476562 218.410156 348.917969 211.882812 C 349.058594 211.5 349.214844 211.121094 349.5625 210.222656 C 349.789062 213.800781 349.203125 216.78125 348.785156 219.742188 Z M 355.160156 167.636719 C 354.78125 170.605469 354.371094 173.566406 353.980469 176.523438 C 353.765625 176.402344 353.542969 176.289062 353.328125 176.171875 C 352.351562 168.84375 350.746094 161.644531 348.691406 154.550781 C 345.804688 144.542969 342.066406 134.855469 337.167969 125.660156 C 330.984375 114.03125 323.707031 103.140625 315.015625 93.191406 C 305.636719 82.464844 295.089844 73.074219 283.363281 65.035156 C 271.265625 56.75 258.296875 50.121094 244.484375 45.128906 C 233.78125 41.257812 222.804688 38.46875 211.582031 36.707031 C 206.226562 35.871094 200.824219 35.386719 195.40625 35.023438 C 190.082031 34.660156 184.773438 34.6875 179.46875 34.761719 C 168.769531 34.914062 158.207031 36.324219 147.738281 38.433594 C 147.355469 38.378906 146.914062 38.519531 146.652344 38.085938 C 163.65625 29.332031 181.507812 23.195312 200.382812 19.964844 C 211.695312 18.03125 223.074219 17.34375 234.484375 17.953125 C 251.308594 18.84375 267.523438 22.535156 282.972656 29.460938 C 298.476562 36.414062 311.964844 46.136719 323.363281 58.695312 C 336.390625 73.054688 345.363281 89.71875 350.71875 108.34375 C 353.535156 118.105469 355.292969 128.042969 355.921875 138.199219 C 356.527344 148.042969 356.398438 157.851562 355.160156 167.636719 Z M 355.160156 167.636719 " fill-opacity="1" fill-rule="nonzero"/></g></svg>