<svg xmlns="http://www.w3.org/2000/svg" xmlns:xlink="http://www.w3.org/1999/xlink" width="500" zoomAndPan="magnify" viewBox="0 0 375 374.999991" height="500" preserveAspectRatio="xMidYMid meet" version="1.0"><defs><clipPath id="2f20e4d4e5"><path d="M 22.707031 13.578125 L 351.957031 13.578125 L 351.957031 361.578125 L 22.707031 361.578125 Z M 22.707031 13.578125 " clip-rule="nonzero"/></clipPath></defs><g clip-path="url(#2f20e4d4e5)"><path fill="#aed3b0" d="M 259.878906 361.546875 C 259.28125 361.546875 258.683594 361.546875 258.085938 361.546875 C 255.480469 361.546875 252.875 361.546875 250.265625 361.550781 C 247.808594 361.574219 245.414062 361.042969 243.042969 360.53125 C 237.253906 359.285156 231.53125 357.746094 225.945312 355.761719 C 222.1875 354.425781 218.507812 352.894531 214.855469 351.300781 C 206.589844 347.691406 198.535156 343.601562 190.148438 340.265625 C 184.769531 338.128906 179.246094 336.511719 173.5 335.671875 C 170.742188 335.269531 167.992188 334.925781 165.207031 334.746094 C 163.566406 334.640625 161.929688 334.441406 160.289062 334.546875 C 157.21875 334.742188 154.148438 334.949219 151.085938 335.308594 C 147.53125 335.726562 144.003906 336.289062 140.480469 336.902344 C 137.589844 337.40625 134.734375 338.082031 131.898438 338.816406 C 126.691406 340.15625 121.539062 341.722656 116.480469 343.550781 C 110.527344 345.703125 104.5 347.578125 98.324219 348.988281 C 95.027344 349.746094 91.691406 350.1875 88.316406 350.484375 C 84.078125 350.859375 79.84375 350.785156 75.613281 350.703125 C 69.984375 350.59375 64.578125 349.359375 59.4375 346.992188 C 57.308594 346.011719 55.246094 344.917969 53.199219 343.777344 C 51.21875 342.679688 49.519531 341.21875 47.804688 339.777344 C 46.125 338.367188 44.515625 336.875 42.964844 335.316406 C 39.59375 331.9375 36.847656 328.082031 34.425781 324.003906 C 30.585938 317.539062 27.714844 310.632812 25.523438 303.449219 C 24.445312 299.925781 23.765625 296.304688 23.417969 292.617188 C 23.300781 291.375 23.195312 290.136719 23.15625 288.894531 C 23.320312 287 23.03125 285.128906 22.878906 283.25 C 22.707031 281.105469 23.386719 279 23.15625 276.859375 C 23.292969 273.863281 23.832031 270.921875 24.386719 267.988281 C 25.058594 264.410156 25.78125 260.847656 26.886719 257.371094 C 27.933594 254.082031 29.171875 250.875 30.5625 247.722656 C 31.894531 244.707031 33.246094 241.695312 34.742188 238.761719 C 37.777344 232.800781 40.992188 226.929688 44.359375 221.144531 C 47.421875 215.878906 50.339844 210.53125 53.398438 205.265625 C 56.085938 200.636719 58.585938 195.914062 60.871094 191.082031 C 63.800781 184.890625 66.378906 178.566406 67.9375 171.863281 C 68.738281 168.417969 69.308594 164.941406 69.683594 161.414062 C 69.964844 158.761719 70 156.113281 69.847656 153.484375 C 69.679688 150.65625 69.542969 147.820312 69.101562 145.003906 C 68.65625 142.152344 68.457031 139.265625 68.101562 136.398438 C 67.789062 133.878906 67.421875 131.367188 67.0625 128.855469 C 66.625 125.800781 66.164062 122.746094 65.722656 119.695312 C 65.347656 117.082031 64.957031 114.472656 64.613281 111.859375 C 64.355469 109.882812 64.0625 107.90625 63.96875 105.917969 C 63.757812 101.636719 63.261719 97.355469 63.363281 93.066406 C 63.578125 83.921875 64.996094 75.003906 68.546875 66.507812 C 70.421875 62.023438 72.75 57.78125 75.308594 53.660156 C 77.660156 49.878906 80.332031 46.351562 83.386719 43.101562 C 87.300781 38.941406 91.667969 35.355469 96.265625 31.996094 C 102.734375 27.265625 109.9375 23.972656 117.351562 21.128906 C 123.070312 18.933594 128.875 16.941406 134.863281 15.582031 C 137.722656 14.933594 140.601562 14.417969 143.53125 14.136719 C 147.15625 13.785156 150.777344 13.578125 154.414062 13.585938 C 157.410156 13.585938 160.375 13.890625 163.351562 14.113281 C 165.9375 14.304688 168.488281 14.695312 171.042969 15.078125 C 174.058594 15.523438 176.976562 16.363281 179.847656 17.355469 C 183.910156 18.761719 187.792969 20.589844 191.578125 22.621094 C 194.917969 24.417969 198.183594 26.335938 201.519531 28.136719 C 204.640625 29.820312 207.867188 31.292969 211.054688 32.832031 C 216.285156 35.359375 221.761719 37.167969 227.304688 38.835938 C 231.605469 40.132812 236.023438 40.855469 240.414062 41.699219 C 242.390625 42.078125 244.449219 42.390625 246.496094 41.875 C 246.875 41.78125 247.292969 41.832031 247.691406 41.828125 C 250.289062 41.820312 252.882812 41.828125 255.480469 41.808594 C 258.972656 41.78125 262.4375 42.089844 265.917969 42.332031 C 268.597656 42.519531 271.277344 42.757812 273.9375 43.070312 C 277.640625 43.5 281.289062 44.308594 284.886719 45.3125 C 289.359375 46.566406 293.753906 48.054688 297.917969 50.113281 C 302.65625 52.457031 307.300781 55.007812 311.472656 58.296875 C 316.359375 62.144531 319.847656 67.050781 322.28125 72.777344 C 323.753906 76.242188 324.921875 79.789062 325.398438 83.515625 C 325.847656 87.027344 325.90625 90.554688 325.585938 94.117188 C 325.039062 100.167969 323.015625 105.78125 320.890625 111.378906 C 318.550781 117.546875 316.683594 123.863281 315.414062 130.332031 C 314.957031 132.664062 314.644531 135.054688 314.683594 137.464844 C 314.726562 140.3125 314.632812 143.167969 314.730469 146.019531 C 314.8125 148.453125 315.171875 150.875 315.476562 153.296875 C 315.890625 156.558594 316.460938 159.792969 317.09375 163.019531 C 317.90625 167.179688 318.800781 171.332031 320.253906 175.316406 C 322.117188 180.425781 324.113281 185.488281 326.101562 190.550781 C 326.90625 192.59375 327.800781 194.605469 328.742188 196.589844 C 330.496094 200.292969 332.304688 203.96875 334.117188 207.644531 C 336.210938 211.902344 338.378906 216.125 340.433594 220.402344 C 343.042969 225.851562 345.699219 231.285156 347.546875 237.058594 C 349.125 242.003906 350.476562 247.011719 351.1875 252.15625 C 351.644531 255.460938 351.964844 258.796875 351.882812 262.148438 C 351.882812 264.558594 351.882812 266.96875 351.882812 269.375 C 351.703125 278.5625 349.019531 287.015625 344.523438 294.964844 C 341.828125 299.730469 338.433594 303.941406 334.78125 307.984375 C 331.402344 311.722656 328.027344 315.46875 324.34375 318.910156 C 321.535156 321.535156 318.769531 324.203125 316.132812 326.996094 C 312.707031 330.621094 309.355469 334.316406 305.828125 337.84375 C 302.472656 341.195312 298.878906 344.261719 295.109375 347.140625 C 291.300781 350.050781 287.355469 352.75 283.105469 354.960938 C 277.324219 357.964844 271.246094 360.109375 264.757812 360.984375 C 263.132812 361.203125 261.511719 361.429688 259.878906 361.546875 Z M 259.878906 361.546875 " fill-opacity="1" fill-rule="nonzero"/></g></svg>