<svg xmlns="http://www.w3.org/2000/svg" xmlns:xlink="http://www.w3.org/1999/xlink" width="1920" zoomAndPan="magnify" viewBox="0 0 1440 809.999993" height="1080" preserveAspectRatio="xMidYMid meet" version="1.0"><defs><clipPath id="2429dcc41b"><path d="M 577.144531 34.125 L 838.894531 34.125 L 838.894531 200 L 577.144531 200 Z M 577.144531 34.125 " clip-rule="nonzero"/></clipPath><clipPath id="d2fbcc38ce"><path d="M 577.144531 226 L 838.894531 226 L 838.894531 392 L 577.144531 392 Z M 577.144531 226 " clip-rule="nonzero"/></clipPath><clipPath id="213317abe0"><path d="M 577.144531 418 L 838.894531 418 L 838.894531 584 L 577.144531 584 Z M 577.144531 418 " clip-rule="nonzero"/></clipPath><clipPath id="54eb6b0237"><path d="M 577.144531 609 L 838.894531 609 L 838.894531 775.875 L 577.144531 775.875 Z M 577.144531 609 " clip-rule="nonzero"/></clipPath></defs><g clip-path="url(#2429dcc41b)"><path fill="#369694" d="M 609.671875 199.046875 C 609.910156 199.285156 610.179688 199.46875 610.488281 199.597656 C 610.796875 199.726562 611.117188 199.789062 611.453125 199.789062 C 611.789062 199.789062 612.109375 199.726562 612.417969 199.597656 C 612.726562 199.46875 613 199.285156 613.234375 199.046875 L 707.929688 104.351562 L 802.625 199.046875 C 803.109375 199.546875 803.703125 199.796875 804.402344 199.785156 C 805.101562 199.789062 805.695312 199.542969 806.183594 199.046875 L 837.957031 167.273438 C 838.191406 167.039062 838.375 166.769531 838.503906 166.460938 C 838.632812 166.152344 838.699219 165.828125 838.699219 165.496094 C 838.699219 165.160156 838.632812 164.839844 838.503906 164.53125 C 838.375 164.222656 838.191406 163.949219 837.957031 163.714844 L 709.707031 35.449219 C 709.472656 35.210938 709.203125 35.027344 708.894531 34.898438 C 708.585938 34.769531 708.261719 34.707031 707.929688 34.707031 C 707.59375 34.707031 707.273438 34.769531 706.964844 34.898438 C 706.65625 35.027344 706.382812 35.210938 706.148438 35.449219 L 577.882812 163.714844 C 577.644531 163.949219 577.464844 164.222656 577.335938 164.53125 C 577.207031 164.839844 577.140625 165.160156 577.140625 165.496094 C 577.140625 165.828125 577.207031 166.152344 577.335938 166.460938 C 577.464844 166.769531 577.644531 167.039062 577.882812 167.273438 Z M 707.929688 40.789062 L 832.617188 165.496094 L 804.402344 193.707031 L 709.707031 99.011719 C 709.214844 98.523438 708.621094 98.277344 707.929688 98.273438 C 707.230469 98.269531 706.640625 98.519531 706.148438 99.011719 L 611.453125 193.707031 L 583.222656 165.496094 Z M 707.929688 40.789062 " fill-opacity="1" fill-rule="nonzero"/></g><g clip-path="url(#d2fbcc38ce)"><path fill="#369694" d="M 709.707031 227.191406 C 709.472656 226.957031 709.199219 226.777344 708.890625 226.652344 C 708.582031 226.523438 708.261719 226.460938 707.929688 226.460938 C 707.59375 226.460938 707.273438 226.523438 706.964844 226.652344 C 706.65625 226.777344 706.386719 226.957031 706.148438 227.191406 L 577.882812 355.457031 C 577.644531 355.691406 577.464844 355.960938 577.335938 356.269531 C 577.207031 356.578125 577.140625 356.902344 577.140625 357.234375 C 577.140625 357.570312 577.207031 357.890625 577.335938 358.199219 C 577.464844 358.507812 577.644531 358.78125 577.882812 359.015625 L 609.671875 390.804688 C 609.910156 391.039062 610.183594 391.21875 610.492188 391.34375 C 610.800781 391.472656 611.121094 391.535156 611.453125 391.535156 C 611.785156 391.535156 612.105469 391.472656 612.414062 391.34375 C 612.722656 391.21875 612.996094 391.039062 613.234375 390.804688 L 707.929688 296.109375 L 802.625 390.804688 C 803.113281 391.296875 803.707031 391.542969 804.402344 391.542969 C 805.097656 391.535156 805.691406 391.289062 806.183594 390.804688 L 837.957031 359.015625 C 838.191406 358.78125 838.375 358.507812 838.503906 358.199219 C 838.632812 357.890625 838.699219 357.570312 838.699219 357.234375 C 838.699219 356.902344 838.632812 356.578125 838.503906 356.269531 C 838.375 355.960938 838.191406 355.691406 837.957031 355.457031 Z M 804.402344 385.464844 L 709.707031 290.769531 C 709.21875 290.273438 708.625 290.027344 707.929688 290.03125 C 707.230469 290.019531 706.636719 290.265625 706.148438 290.769531 L 611.453125 385.464844 L 583.222656 357.234375 L 707.929688 232.546875 L 832.617188 357.234375 Z M 804.402344 385.464844 " fill-opacity="1" fill-rule="nonzero"/></g><g clip-path="url(#213317abe0)"><path fill="#369694" d="M 709.707031 418.949219 C 709.472656 418.710938 709.203125 418.527344 708.894531 418.398438 C 708.585938 418.269531 708.261719 418.207031 707.929688 418.207031 C 707.59375 418.207031 707.273438 418.269531 706.964844 418.398438 C 706.65625 418.527344 706.382812 418.710938 706.148438 418.949219 L 577.882812 547.214844 C 577.390625 547.703125 577.144531 548.296875 577.144531 548.992188 C 577.148438 549.6875 577.394531 550.28125 577.882812 550.773438 L 609.671875 582.546875 C 609.910156 582.785156 610.179688 582.964844 610.488281 583.09375 C 610.796875 583.222656 611.117188 583.289062 611.453125 583.289062 C 611.789062 583.289062 612.109375 583.222656 612.417969 583.09375 C 612.726562 582.964844 613 582.785156 613.234375 582.546875 L 707.929688 487.851562 L 802.625 582.546875 C 803.109375 583.046875 803.703125 583.292969 804.402344 583.285156 C 805.101562 583.289062 805.695312 583.042969 806.183594 582.546875 L 837.957031 550.773438 C 838.445312 550.28125 838.691406 549.6875 838.695312 548.992188 C 838.695312 548.296875 838.449219 547.703125 837.957031 547.214844 Z M 804.402344 577.207031 L 709.707031 482.511719 C 709.214844 482.023438 708.621094 481.777344 707.929688 481.769531 C 707.230469 481.769531 706.640625 482.015625 706.148438 482.511719 L 611.453125 577.207031 L 583.222656 548.992188 L 707.929688 424.304688 L 832.617188 549.011719 Z M 804.402344 577.207031 " fill-opacity="1" fill-rule="nonzero"/></g><g clip-path="url(#54eb6b0237)"><path fill="#369694" d="M 709.707031 610.707031 C 709.472656 610.46875 709.203125 610.285156 708.894531 610.15625 C 708.585938 610.027344 708.261719 609.964844 707.929688 609.964844 C 707.59375 609.964844 707.273438 610.027344 706.964844 610.15625 C 706.65625 610.285156 706.382812 610.46875 706.148438 610.707031 L 577.882812 738.953125 C 577.394531 739.445312 577.148438 740.039062 577.144531 740.734375 C 577.144531 741.429688 577.390625 742.023438 577.882812 742.515625 L 609.671875 774.304688 C 609.910156 774.535156 610.183594 774.71875 610.492188 774.84375 C 610.800781 774.96875 611.121094 775.03125 611.453125 775.03125 C 611.785156 775.03125 612.105469 774.96875 612.414062 774.84375 C 612.722656 774.71875 612.996094 774.535156 613.234375 774.304688 L 707.929688 679.558594 L 802.625 774.253906 C 803.113281 774.746094 803.707031 774.992188 804.402344 774.992188 C 805.097656 774.984375 805.691406 774.738281 806.183594 774.253906 L 837.957031 742.464844 C 838.449219 741.972656 838.695312 741.378906 838.695312 740.683594 C 838.691406 739.988281 838.445312 739.398438 837.957031 738.902344 Z M 804.402344 768.960938 L 709.707031 674.269531 C 709.21875 673.773438 708.625 673.527344 707.929688 673.527344 C 707.230469 673.519531 706.636719 673.765625 706.148438 674.269531 L 611.453125 768.960938 L 583.222656 740.734375 L 707.929688 616.046875 L 832.617188 740.734375 Z M 804.402344 768.960938 " fill-opacity="1" fill-rule="nonzero"/></g></svg>