<svg xmlns="http://www.w3.org/2000/svg" xmlns:xlink="http://www.w3.org/1999/xlink" width="1080" zoomAndPan="magnify" viewBox="0 0 810 809.999993" height="1080" preserveAspectRatio="xMidYMid meet" version="1.0"><defs><clipPath id="a0c8e28c85"><path d="M 72 69 L 784.214844 69 L 784.214844 780.742188 L 72 780.742188 Z M 72 69 " clip-rule="nonzero"/></clipPath><clipPath id="20ee79372a"><path d="M 41.714844 38.242188 L 754 38.242188 L 754 750 L 41.714844 750 Z M 41.714844 38.242188 " clip-rule="nonzero"/></clipPath></defs><g clip-path="url(#a0c8e28c85)"><path fill="#54a4a6" d="M 784.214844 424.941406 C 784.214844 430.765625 784.074219 436.585938 783.789062 442.398438 C 783.503906 448.214844 783.074219 454.019531 782.503906 459.816406 C 781.933594 465.609375 781.21875 471.386719 780.367188 477.148438 C 779.511719 482.90625 778.515625 488.644531 777.378906 494.355469 C 776.242188 500.066406 774.96875 505.746094 773.554688 511.394531 C 772.140625 517.042969 770.585938 522.652344 768.894531 528.222656 C 767.207031 533.796875 765.378906 539.324219 763.417969 544.804688 C 761.457031 550.289062 759.363281 555.71875 757.132812 561.097656 C 754.90625 566.480469 752.546875 571.800781 750.054688 577.0625 C 747.566406 582.328125 744.949219 587.527344 742.203125 592.664062 C 739.460938 597.796875 736.589844 602.863281 733.597656 607.859375 C 730.601562 612.851562 727.488281 617.769531 724.253906 622.613281 C 721.019531 627.453125 717.667969 632.210938 714.199219 636.890625 C 710.730469 641.566406 707.148438 646.15625 703.453125 650.65625 C 699.761719 655.15625 695.957031 659.566406 692.046875 663.878906 C 688.136719 668.195312 684.125 672.410156 680.007812 676.527344 C 675.886719 680.644531 671.671875 684.660156 667.359375 688.570312 C 663.042969 692.480469 658.636719 696.28125 654.136719 699.976562 C 649.632812 703.671875 645.042969 707.25 640.367188 710.71875 C 635.691406 714.1875 630.929688 717.542969 626.089844 720.777344 C 621.25 724.011719 616.332031 727.125 611.335938 730.117188 C 606.339844 733.113281 601.277344 735.980469 596.140625 738.726562 C 591.003906 741.472656 585.804688 744.089844 580.542969 746.578125 C 575.277344 749.066406 569.957031 751.425781 564.578125 753.65625 C 559.199219 755.882812 553.765625 757.980469 548.285156 759.941406 C 542.800781 761.902344 537.273438 763.726562 531.703125 765.417969 C 526.128906 767.109375 520.519531 768.660156 514.871094 770.074219 C 509.222656 771.492188 503.542969 772.765625 497.832031 773.902344 C 492.121094 775.039062 486.386719 776.035156 480.625 776.886719 C 474.867188 777.742188 469.089844 778.453125 463.292969 779.027344 C 457.5 779.597656 451.695312 780.023438 445.878906 780.308594 C 440.0625 780.597656 434.242188 780.738281 428.417969 780.738281 C 422.597656 780.738281 416.777344 780.597656 410.960938 780.308594 C 405.144531 780.023438 399.339844 779.597656 393.546875 779.027344 C 387.75 778.453125 381.972656 777.742188 376.214844 776.886719 C 370.453125 776.035156 364.71875 775.039062 359.007812 773.902344 C 353.296875 772.765625 347.617188 771.492188 341.96875 770.074219 C 336.320312 768.660156 330.710938 767.109375 325.136719 765.417969 C 319.566406 763.726562 314.039062 761.902344 308.554688 759.941406 C 303.074219 757.980469 297.640625 755.882812 292.261719 753.65625 C 286.882812 751.425781 281.5625 749.066406 276.296875 746.578125 C 271.03125 744.089844 265.832031 741.472656 260.699219 738.726562 C 255.5625 735.980469 250.496094 733.113281 245.503906 730.117188 C 240.507812 727.125 235.589844 724.011719 230.75 720.777344 C 225.90625 717.542969 221.148438 714.1875 216.472656 710.71875 C 211.792969 707.25 207.207031 703.671875 202.703125 699.976562 C 198.203125 696.28125 193.796875 692.480469 189.480469 688.570312 C 185.167969 684.660156 180.949219 680.644531 176.832031 676.527344 C 172.714844 672.410156 168.703125 668.195312 164.792969 663.878906 C 160.882812 659.566406 157.078125 655.15625 153.386719 650.65625 C 149.691406 646.15625 146.109375 641.566406 142.640625 636.890625 C 139.171875 632.210938 135.820312 627.453125 132.585938 622.613281 C 129.351562 617.769531 126.234375 612.851562 123.242188 607.859375 C 120.25 602.863281 117.378906 597.796875 114.632812 592.664062 C 111.890625 587.527344 109.273438 582.328125 106.78125 577.0625 C 104.292969 571.800781 101.933594 566.480469 99.707031 561.097656 C 97.476562 555.71875 95.382812 550.289062 93.421875 544.804688 C 91.460938 539.324219 89.632812 533.796875 87.941406 528.222656 C 86.253906 522.652344 84.699219 517.042969 83.285156 511.394531 C 81.871094 505.746094 80.59375 500.066406 79.460938 494.355469 C 78.324219 488.644531 77.328125 482.90625 76.472656 477.148438 C 75.621094 471.386719 74.90625 465.609375 74.335938 459.816406 C 73.765625 454.019531 73.335938 448.214844 73.050781 442.398438 C 72.765625 436.582031 72.621094 430.765625 72.621094 424.941406 C 72.621094 419.117188 72.765625 413.300781 73.050781 407.484375 C 73.335938 401.667969 73.765625 395.863281 74.335938 390.066406 C 74.90625 384.273438 75.621094 378.496094 76.472656 372.734375 C 77.328125 366.976562 78.324219 361.238281 79.460938 355.527344 C 80.59375 349.816406 81.871094 344.136719 83.285156 338.488281 C 84.699219 332.839844 86.253906 327.230469 87.941406 321.660156 C 89.632812 316.085938 91.460938 310.558594 93.421875 305.078125 C 95.382812 299.59375 97.476562 294.164062 99.707031 288.785156 C 101.933594 283.40625 104.292969 278.082031 106.78125 272.820312 C 109.273438 267.554688 111.890625 262.355469 114.632812 257.21875 C 117.378906 252.085938 120.25 247.019531 123.242188 242.027344 C 126.234375 237.03125 129.351562 232.113281 132.585938 227.269531 C 135.820312 222.429688 139.171875 217.671875 142.640625 212.992188 C 146.109375 208.316406 149.691406 203.726562 153.386719 199.226562 C 157.078125 194.726562 160.882812 190.316406 164.792969 186.003906 C 168.703125 181.6875 172.714844 177.472656 176.832031 173.355469 C 180.949219 169.238281 185.167969 165.222656 189.480469 161.3125 C 193.796875 157.402344 198.203125 153.601562 202.703125 149.90625 C 207.207031 146.210938 211.792969 142.632812 216.472656 139.164062 C 221.148438 135.695312 225.90625 132.34375 230.75 129.105469 C 235.589844 125.871094 240.507812 122.757812 245.503906 119.765625 C 250.496094 116.769531 255.5625 113.902344 260.699219 111.15625 C 265.832031 108.410156 271.03125 105.792969 276.296875 103.304688 C 281.5625 100.816406 286.882812 98.457031 292.261719 96.226562 C 297.640625 94 303.074219 91.90625 308.554688 89.941406 C 314.039062 87.980469 319.566406 86.15625 325.136719 84.464844 C 330.710938 82.773438 336.320312 81.222656 341.96875 79.808594 C 347.617188 78.390625 353.296875 77.117188 359.007812 75.980469 C 364.71875 74.84375 370.453125 73.851562 376.214844 72.996094 C 381.972656 72.140625 387.75 71.429688 393.546875 70.859375 C 399.339844 70.289062 405.144531 69.859375 410.960938 69.574219 C 416.777344 69.289062 422.597656 69.144531 428.417969 69.144531 C 434.242188 69.144531 440.0625 69.289062 445.878906 69.574219 C 451.695312 69.859375 457.5 70.289062 463.292969 70.859375 C 469.089844 71.429688 474.867188 72.140625 480.625 72.996094 C 486.386719 73.851562 492.121094 74.84375 497.832031 75.980469 C 503.542969 77.117188 509.222656 78.390625 514.871094 79.808594 C 520.519531 81.222656 526.128906 82.773438 531.703125 84.464844 C 537.273438 86.15625 542.800781 87.980469 548.285156 89.941406 C 553.765625 91.90625 559.199219 94 564.578125 96.226562 C 569.957031 98.457031 575.277344 100.816406 580.542969 103.304688 C 585.804688 105.792969 591.003906 108.410156 596.140625 111.15625 C 601.277344 113.902344 606.339844 116.769531 611.335938 119.765625 C 616.332031 122.757812 621.25 125.871094 626.089844 129.105469 C 630.929688 132.34375 635.691406 135.695312 640.367188 139.164062 C 645.042969 142.632812 649.632812 146.210938 654.136719 149.90625 C 658.636719 153.601562 663.042969 157.402344 667.359375 161.3125 C 671.671875 165.222656 675.886719 169.238281 680.007812 173.355469 C 684.125 177.472656 688.136719 181.6875 692.046875 186.003906 C 695.957031 190.316406 699.761719 194.726562 703.453125 199.226562 C 707.148438 203.726562 710.730469 208.316406 714.199219 212.992188 C 717.667969 217.671875 721.019531 222.429688 724.253906 227.269531 C 727.488281 232.113281 730.601562 237.03125 733.597656 242.027344 C 736.589844 247.019531 739.460938 252.085938 742.203125 257.21875 C 744.949219 262.355469 747.566406 267.554688 750.054688 272.820312 C 752.546875 278.082031 754.90625 283.40625 757.132812 288.785156 C 759.363281 294.164062 761.457031 299.59375 763.417969 305.078125 C 765.378906 310.558594 767.207031 316.085938 768.894531 321.660156 C 770.585938 327.230469 772.140625 332.839844 773.554688 338.488281 C 774.96875 344.136719 776.242188 349.816406 777.378906 355.527344 C 778.515625 361.238281 779.511719 366.976562 780.367188 372.734375 C 781.21875 378.496094 781.933594 384.273438 782.503906 390.066406 C 783.074219 395.863281 783.503906 401.667969 783.789062 407.484375 C 784.074219 413.300781 784.214844 419.117188 784.214844 424.941406 Z M 784.214844 424.941406 " fill-opacity="1" fill-rule="nonzero"/></g><g clip-path="url(#20ee79372a)"><path fill="#8ccdb0" d="M 753.308594 394.035156 C 753.308594 399.859375 753.164062 405.679688 752.878906 411.492188 C 752.59375 417.308594 752.164062 423.113281 751.59375 428.910156 C 751.023438 434.703125 750.3125 440.480469 749.457031 446.242188 C 748.601562 452 747.605469 457.738281 746.472656 463.449219 C 745.335938 469.160156 744.058594 474.839844 742.644531 480.488281 C 741.230469 486.136719 739.675781 491.746094 737.988281 497.316406 C 736.296875 502.890625 734.472656 508.417969 732.507812 513.898438 C 730.546875 519.382812 728.453125 524.8125 726.222656 530.191406 C 723.996094 535.574219 721.636719 540.894531 719.148438 546.15625 C 716.65625 551.421875 714.039062 556.621094 711.296875 561.757812 C 708.550781 566.890625 705.683594 571.957031 702.6875 576.953125 C 699.695312 581.945312 696.582031 586.863281 693.34375 591.707031 C 690.109375 596.546875 686.757812 601.304688 683.289062 605.984375 C 679.820312 610.660156 676.238281 615.25 672.546875 619.75 C 668.851562 624.25 665.050781 628.660156 661.140625 632.972656 C 657.230469 637.289062 653.214844 641.503906 649.097656 645.621094 C 644.980469 649.738281 640.765625 653.753906 636.449219 657.664062 C 632.136719 661.574219 627.726562 665.375 623.226562 669.070312 C 618.726562 672.761719 614.136719 676.34375 609.460938 679.8125 C 604.78125 683.28125 600.023438 686.632812 595.183594 689.867188 C 590.339844 693.105469 585.421875 696.21875 580.429688 699.210938 C 575.433594 702.207031 570.367188 705.074219 565.234375 707.820312 C 560.097656 710.5625 554.898438 713.179688 549.632812 715.671875 C 544.371094 718.160156 539.050781 720.519531 533.667969 722.75 C 528.289062 724.976562 522.859375 727.070312 517.375 729.03125 C 511.894531 730.996094 506.367188 732.820312 500.792969 734.511719 C 495.222656 736.203125 489.613281 737.753906 483.964844 739.167969 C 478.316406 740.582031 472.636719 741.859375 466.925781 742.996094 C 461.214844 744.132812 455.476562 745.125 449.71875 745.980469 C 443.957031 746.835938 438.179688 747.546875 432.386719 748.117188 C 426.589844 748.6875 420.785156 749.117188 414.96875 749.402344 C 409.15625 749.6875 403.335938 749.832031 397.511719 749.832031 C 391.691406 749.832031 385.871094 749.6875 380.054688 749.402344 C 374.238281 749.117188 368.433594 748.6875 362.636719 748.117188 C 356.84375 747.546875 351.066406 746.835938 345.304688 745.980469 C 339.546875 745.125 333.8125 744.132812 328.101562 742.996094 C 322.390625 741.859375 316.710938 740.582031 311.0625 739.167969 C 305.414062 737.753906 299.800781 736.203125 294.230469 734.511719 C 288.65625 732.820312 283.132812 730.996094 277.648438 729.03125 C 272.164062 727.070312 266.734375 724.976562 261.355469 722.746094 C 255.976562 720.519531 250.652344 718.160156 245.390625 715.671875 C 240.125 713.179688 234.925781 710.5625 229.792969 707.820312 C 224.65625 705.074219 219.589844 702.207031 214.597656 699.210938 C 209.601562 696.21875 204.683594 693.105469 199.84375 689.867188 C 195 686.632812 190.242188 683.28125 185.566406 679.8125 C 180.886719 676.34375 176.300781 672.761719 171.796875 669.070312 C 167.296875 665.375 162.890625 661.574219 158.574219 657.664062 C 154.261719 653.753906 150.042969 649.738281 145.925781 645.621094 C 141.808594 641.503906 137.796875 637.289062 133.886719 632.972656 C 129.976562 628.660156 126.171875 624.25 122.480469 619.75 C 118.785156 615.25 115.203125 610.660156 111.734375 605.984375 C 108.265625 601.304688 104.914062 596.546875 101.679688 591.707031 C 98.445312 586.863281 95.328125 581.945312 92.335938 576.953125 C 89.34375 571.957031 86.472656 566.890625 83.730469 561.757812 C 80.984375 556.621094 78.367188 551.421875 75.875 546.15625 C 73.386719 540.894531 71.027344 535.574219 68.800781 530.191406 C 66.570312 524.8125 64.476562 519.382812 62.515625 513.898438 C 60.554688 508.417969 58.726562 502.890625 57.039062 497.316406 C 55.347656 491.746094 53.792969 486.136719 52.378906 480.488281 C 50.964844 474.839844 49.6875 469.160156 48.554688 463.449219 C 47.417969 457.738281 46.421875 452 45.566406 446.242188 C 44.714844 440.480469 44 434.703125 43.429688 428.910156 C 42.859375 423.113281 42.429688 417.308594 42.144531 411.492188 C 41.859375 405.679688 41.714844 399.859375 41.714844 394.035156 C 41.714844 388.214844 41.859375 382.394531 42.144531 376.578125 C 42.429688 370.761719 42.859375 364.957031 43.429688 359.160156 C 44 353.367188 44.714844 347.589844 45.566406 341.828125 C 46.421875 336.070312 47.417969 330.335938 48.554688 324.625 C 49.6875 318.914062 50.964844 313.234375 52.378906 307.585938 C 53.792969 301.9375 55.347656 296.324219 57.039062 290.753906 C 58.726562 285.183594 60.554688 279.65625 62.515625 274.171875 C 64.476562 268.691406 66.570312 263.257812 68.800781 257.878906 C 71.027344 252.5 73.386719 247.175781 75.875 241.914062 C 78.367188 236.648438 80.984375 231.449219 83.730469 226.316406 C 86.472656 221.179688 89.34375 216.113281 92.335938 211.121094 C 95.328125 206.125 98.445312 201.207031 101.679688 196.367188 C 104.914062 191.523438 108.265625 186.765625 111.734375 182.089844 C 115.203125 177.410156 118.785156 172.824219 122.480469 168.320312 C 126.171875 163.820312 129.976562 159.414062 133.886719 155.097656 C 137.796875 150.785156 141.808594 146.566406 145.925781 142.449219 C 150.042969 138.332031 154.261719 134.320312 158.574219 130.410156 C 162.890625 126.5 167.296875 122.695312 171.796875 119.003906 C 176.300781 115.308594 180.886719 111.726562 185.566406 108.257812 C 190.242188 104.789062 195 101.4375 199.84375 98.203125 C 204.683594 94.96875 209.601562 91.851562 214.597656 88.859375 C 219.589844 85.867188 224.65625 82.996094 229.792969 80.253906 C 234.925781 77.507812 240.125 74.890625 245.390625 72.402344 C 250.652344 69.910156 255.976562 67.550781 261.355469 65.324219 C 266.734375 63.09375 272.164062 61 277.648438 59.039062 C 283.132812 57.078125 288.65625 55.25 294.230469 53.5625 C 299.800781 51.871094 305.414062 50.316406 311.0625 48.902344 C 316.710938 47.488281 322.390625 46.210938 328.101562 45.078125 C 333.8125 43.941406 339.546875 42.945312 345.304688 42.089844 C 351.066406 41.238281 356.84375 40.523438 362.636719 39.953125 C 368.433594 39.382812 374.238281 38.953125 380.054688 38.667969 C 385.871094 38.382812 391.691406 38.242188 397.511719 38.242188 C 403.335938 38.242188 409.15625 38.382812 414.96875 38.667969 C 420.785156 38.953125 426.589844 39.382812 432.386719 39.953125 C 438.179688 40.523438 443.957031 41.238281 449.71875 42.089844 C 455.476562 42.945312 461.214844 43.941406 466.925781 45.078125 C 472.636719 46.210938 478.316406 47.488281 483.964844 48.902344 C 489.613281 50.316406 495.222656 51.871094 500.792969 53.5625 C 506.367188 55.25 511.894531 57.078125 517.375 59.039062 C 522.859375 61 528.289062 63.09375 533.667969 65.324219 C 539.050781 67.550781 544.371094 69.910156 549.632812 72.402344 C 554.898438 74.890625 560.097656 77.507812 565.234375 80.253906 C 570.367188 82.996094 575.433594 85.867188 580.425781 88.859375 C 585.421875 91.851562 590.339844 94.96875 595.183594 98.203125 C 600.023438 101.4375 604.78125 104.789062 609.460938 108.257812 C 614.136719 111.726562 618.726562 115.308594 623.226562 119.003906 C 627.726562 122.695312 632.136719 126.5 636.449219 130.410156 C 640.765625 134.320312 644.980469 138.332031 649.097656 142.449219 C 653.214844 146.566406 657.230469 150.785156 661.140625 155.097656 C 665.050781 159.414062 668.851562 163.820312 672.546875 168.320312 C 676.238281 172.824219 679.820312 177.410156 683.289062 182.089844 C 686.757812 186.765625 690.109375 191.523438 693.34375 196.367188 C 696.582031 201.207031 699.695312 206.125 702.6875 211.121094 C 705.683594 216.113281 708.550781 221.179688 711.296875 226.316406 C 714.039062 231.449219 716.65625 236.648438 719.148438 241.914062 C 721.636719 247.175781 723.996094 252.5 726.222656 257.878906 C 728.453125 263.257812 730.546875 268.691406 732.507812 274.171875 C 734.472656 279.65625 736.296875 285.183594 737.988281 290.753906 C 739.675781 296.324219 741.230469 301.9375 742.644531 307.585938 C 744.058594 313.234375 745.335938 318.914062 746.472656 324.625 C 747.605469 330.335938 748.601562 336.070312 749.457031 341.828125 C 750.3125 347.589844 751.023438 353.367188 751.59375 359.160156 C 752.164062 364.957031 752.59375 370.761719 752.878906 376.578125 C 753.164062 382.394531 753.308594 388.214844 753.308594 394.035156 Z M 753.308594 394.035156 " fill-opacity="1" fill-rule="nonzero"/></g></svg>