<svg xmlns="http://www.w3.org/2000/svg" xmlns:xlink="http://www.w3.org/1999/xlink" width="1080" zoomAndPan="magnify" viewBox="0 0 810 809.999993" height="1080" preserveAspectRatio="xMidYMid meet" version="1.0"><defs><clipPath id="3d4d50a3ed"><path d="M 81 151 L 679 151 L 679 742.863281 L 81 742.863281 Z M 81 151 " clip-rule="nonzero"/></clipPath></defs><path fill="#ff9292" d="M 325.777344 114.789062 L 708.65625 497.914062 C 711.394531 486.140625 713.488281 474.210938 714.9375 462.117188 L 361.550781 108.5 C 349.304688 109.953125 337.378906 112.046875 325.777344 114.789062 Z M 325.777344 114.789062 " fill-opacity="1" fill-rule="nonzero"/><g clip-path="url(#3d4d50a3ed)"><path fill="#ff9292" d="M 659.667969 575.148438 L 236.019531 151.230469 C 227.320312 156.390625 218.9375 162.035156 210.71875 168 L 626.308594 583.855469 C 632.109375 589.664062 632.109375 599.015625 626.308594 604.980469 C 623.410156 607.882812 619.542969 609.335938 615.835938 609.335938 C 611.96875 609.335938 608.261719 607.882812 605.359375 604.980469 L 188 187.351562 C 187.839844 187.191406 187.675781 187.027344 187.515625 186.867188 C 122.089844 245.238281 81 330.054688 81 424.546875 C 81 600.304688 223.449219 742.847656 399.097656 742.847656 C 519.472656 742.847656 624.375 675.929688 678.359375 577.085938 C 675.941406 578.699219 673.042969 579.503906 670.140625 579.503906 C 666.433594 579.503906 662.566406 578.050781 659.667969 575.148438 Z M 371.21875 602.402344 C 368.320312 605.304688 364.453125 606.753906 360.746094 606.753906 C 357.039062 606.753906 353.171875 605.304688 350.269531 602.402344 L 190.578125 442.605469 C 184.777344 436.800781 184.777344 427.449219 190.578125 421.480469 C 196.378906 415.675781 205.726562 415.675781 211.6875 421.480469 L 371.378906 581.277344 C 377.019531 587.082031 377.019531 596.433594 371.21875 602.402344 Z M 482.730469 629.652344 C 479.832031 632.554688 475.964844 634.003906 472.257812 634.003906 C 468.390625 634.003906 464.683594 632.554688 461.78125 629.652344 L 163.183594 331.023438 C 157.382812 325.21875 157.382812 315.863281 163.183594 309.898438 C 168.984375 304.09375 178.332031 304.09375 184.292969 309.898438 L 482.730469 608.527344 C 488.53125 614.496094 488.53125 623.847656 482.730469 629.652344 Z M 561.691406 624.492188 C 558.789062 627.394531 554.921875 628.84375 551.21875 628.84375 C 547.511719 628.84375 543.644531 627.394531 540.742188 624.492188 L 168.339844 251.851562 C 162.539062 246.042969 162.539062 236.691406 168.339844 230.726562 C 174.140625 224.921875 183.488281 224.921875 189.449219 230.726562 L 561.851562 603.367188 C 567.652344 609.335938 567.652344 618.6875 561.691406 624.492188 Z M 561.691406 624.492188 " fill-opacity="1" fill-rule="nonzero"/></g><path fill="#ff9292" d="M 401.351562 106.242188 L 717.195312 422.289062 C 717.035156 406.808594 715.90625 391.488281 713.648438 376.65625 L 446.957031 109.792969 C 432.132812 107.535156 416.824219 106.40625 401.351562 106.242188 Z M 401.351562 106.242188 " fill-opacity="1" fill-rule="nonzero"/><path fill="#ff9292" d="M 263.414062 136.558594 L 680.777344 554.1875 C 683.515625 556.929688 684.964844 560.636719 685.128906 564.183594 C 690.445312 553.21875 695.117188 542.09375 699.308594 530.484375 L 293.226562 124.304688 C 283.074219 127.851562 273.082031 132.042969 263.414062 136.558594 Z M 263.414062 136.558594 " fill-opacity="1" fill-rule="nonzero"/><path fill="#ff9292" d="M 502.710938 123.496094 L 699.953125 320.863281 C 688.351562 287.164062 671.269531 256.042969 649.835938 228.628906 L 595.046875 173.804688 C 567.492188 152.199219 536.390625 135.105469 502.710938 123.496094 Z M 502.710938 123.496094 " fill-opacity="1" fill-rule="nonzero"/><path fill="#ffffff" d="M 211.6875 421.480469 C 205.886719 415.675781 196.539062 415.675781 190.578125 421.480469 C 184.777344 427.285156 184.777344 436.640625 190.578125 442.605469 L 350.269531 602.402344 C 353.171875 605.304688 357.039062 606.753906 360.746094 606.753906 C 364.453125 606.753906 368.320312 605.304688 371.21875 602.402344 C 377.019531 596.597656 377.019531 587.242188 371.21875 581.277344 Z M 211.6875 421.480469 " fill-opacity="1" fill-rule="nonzero"/><path fill="#ffffff" d="M 184.292969 309.898438 C 178.492188 304.09375 169.144531 304.09375 163.183594 309.898438 C 157.382812 315.703125 157.382812 325.054688 163.183594 331.023438 L 461.621094 629.652344 C 464.523438 632.554688 468.390625 634.003906 472.09375 634.003906 C 475.964844 634.003906 479.667969 632.554688 482.570312 629.652344 C 488.371094 623.847656 488.371094 614.496094 482.570312 608.527344 Z M 184.292969 309.898438 " fill-opacity="1" fill-rule="nonzero"/><path fill="#ffffff" d="M 189.289062 230.886719 C 183.488281 225.082031 174.140625 225.082031 168.179688 230.886719 C 162.378906 236.691406 162.378906 246.042969 168.179688 252.011719 L 540.582031 624.652344 C 543.480469 627.554688 547.351562 629.007812 551.054688 629.007812 C 554.761719 629.007812 558.628906 627.554688 561.53125 624.652344 C 567.332031 618.847656 567.332031 609.496094 561.53125 603.53125 Z M 189.289062 230.886719 " fill-opacity="1" fill-rule="nonzero"/><path fill="#ffffff" d="M 605.199219 604.980469 C 608.101562 607.882812 611.96875 609.335938 615.675781 609.335938 C 619.542969 609.335938 623.25 607.882812 626.148438 604.980469 C 631.949219 599.175781 631.949219 589.824219 626.148438 583.855469 L 210.71875 168 L 208.949219 166.226562 C 203.148438 160.421875 193.800781 160.421875 187.839844 166.226562 C 182.199219 171.871094 182.035156 180.902344 187.355469 186.867188 C 187.515625 187.027344 187.675781 187.191406 187.839844 187.351562 Z M 605.199219 604.980469 " fill-opacity="1" fill-rule="nonzero"/><path fill="#ffffff" d="M 263.414062 136.558594 L 238.757812 111.886719 C 232.957031 106.082031 223.613281 106.082031 217.648438 111.886719 C 211.847656 117.691406 211.847656 127.042969 217.648438 133.011719 L 236.019531 151.394531 L 659.667969 575.148438 C 662.566406 578.050781 666.433594 579.503906 670.140625 579.503906 C 673.042969 579.503906 675.78125 578.699219 678.359375 577.085938 C 679.164062 576.601562 679.972656 575.957031 680.777344 575.148438 C 683.839844 572.085938 685.289062 568.054688 685.128906 564.183594 C 684.964844 560.476562 683.515625 556.929688 680.777344 554.1875 Z M 263.414062 136.558594 " fill-opacity="1" fill-rule="nonzero"/><path fill="#ffffff" d="M 276.789062 65.769531 C 270.988281 59.964844 261.640625 59.964844 255.679688 65.769531 C 249.878906 71.574219 249.878906 80.929688 255.679688 86.894531 L 293.066406 124.304688 L 698.984375 530.484375 L 705.59375 537.09375 C 708.492188 540 712.359375 541.449219 716.066406 541.449219 C 719.933594 541.449219 723.640625 540 726.542969 537.09375 C 732.34375 531.289062 732.34375 521.9375 726.542969 515.972656 L 708.492188 497.914062 L 325.777344 114.789062 Z M 276.789062 65.769531 " fill-opacity="1" fill-rule="nonzero"/><path fill="#ffffff" d="M 322.875 27.714844 C 317.074219 21.910156 307.730469 21.910156 301.765625 27.714844 C 295.964844 33.519531 295.964844 42.875 301.765625 48.839844 L 361.390625 108.5 L 714.9375 462.277344 L 743.785156 491.140625 C 746.683594 494.042969 750.550781 495.492188 754.257812 495.492188 C 758.125 495.492188 761.832031 494.042969 764.730469 491.140625 C 770.535156 485.335938 770.535156 475.984375 764.730469 470.015625 L 717.035156 422.289062 L 401.191406 106.242188 Z M 322.875 27.714844 " fill-opacity="1" fill-rule="nonzero"/><path fill="#ffffff" d="M 377.183594 -2.113281 C 371.378906 -7.917969 362.035156 -7.917969 356.070312 -2.113281 C 350.269531 3.691406 350.269531 13.042969 356.070312 19.007812 L 446.796875 109.792969 L 713.488281 376.65625 L 773.433594 436.640625 C 776.335938 439.542969 780.203125 440.992188 783.910156 440.992188 C 787.777344 440.992188 791.480469 439.542969 794.382812 436.640625 C 800.183594 430.832031 800.183594 421.480469 794.382812 415.515625 L 699.792969 320.863281 L 502.710938 123.496094 Z M 377.183594 -2.113281 " fill-opacity="1" fill-rule="nonzero"/><path fill="#ffffff" d="M 441.800781 -21.625 C 436 -27.429688 426.652344 -27.429688 420.691406 -21.625 C 414.890625 -15.820312 414.890625 -6.46875 420.691406 -0.503906 L 595.046875 173.804688 L 649.835938 228.628906 L 793.253906 372.140625 C 796.15625 375.042969 800.023438 376.492188 803.730469 376.492188 C 807.597656 376.492188 811.304688 375.042969 814.203125 372.140625 C 820.003906 366.335938 820.003906 356.984375 814.203125 351.015625 Z M 441.800781 -21.625 " fill-opacity="1" fill-rule="nonzero"/><path fill="#ffffff" d="M 520.761719 -26.785156 C 514.960938 -32.589844 505.613281 -32.589844 499.652344 -26.785156 C 493.851562 -20.980469 493.851562 -11.628906 499.652344 -5.660156 L 798.25 292.96875 C 801.152344 295.871094 805.019531 297.320312 808.722656 297.320312 C 812.429688 297.320312 816.296875 295.871094 819.199219 292.96875 C 825 287.164062 825 277.808594 819.199219 271.84375 Z M 520.761719 -26.785156 " fill-opacity="1" fill-rule="nonzero"/><path fill="#ffffff" d="M 781.492188 185.738281 C 785.359375 185.738281 789.066406 184.289062 791.964844 181.382812 C 797.765625 175.578125 797.765625 166.226562 791.964844 160.261719 L 632.273438 0.464844 C 626.472656 -5.339844 617.125 -5.339844 611.164062 0.464844 C 605.359375 6.269531 605.359375 15.621094 611.164062 21.589844 L 770.855469 181.382812 C 773.757812 184.289062 777.625 185.738281 781.492188 185.738281 Z M 781.492188 185.738281 " fill-opacity="1" fill-rule="nonzero"/></svg>