<svg xmlns="http://www.w3.org/2000/svg" xmlns:xlink="http://www.w3.org/1999/xlink" width="1080" zoomAndPan="magnify" viewBox="0 0 810 809.999993" height="1080" preserveAspectRatio="xMidYMid meet" version="1.0"><defs><clipPath id="d97f1205d7"><path d="M 641 66 L 727.777344 66 L 727.777344 153 L 641 153 Z M 641 66 " clip-rule="nonzero"/></clipPath><clipPath id="99f8711770"><path d="M 641 209 L 727.777344 209 L 727.777344 296 L 641 296 Z M 641 209 " clip-rule="nonzero"/></clipPath><clipPath id="e411c3ea0f"><path d="M 641 353 L 727.777344 353 L 727.777344 440 L 641 440 Z M 641 353 " clip-rule="nonzero"/></clipPath><clipPath id="706752f279"><path d="M 641 496 L 727.777344 496 L 727.777344 583 L 641 583 Z M 641 496 " clip-rule="nonzero"/></clipPath><clipPath id="1470714ea2"><path d="M 641 640 L 727.777344 640 L 727.777344 727 L 641 727 Z M 641 640 " clip-rule="nonzero"/></clipPath></defs><path fill="#fba48a" d="M 139.109375 109.4375 C 138.691406 125.09375 126.375 138.136719 110.398438 138.136719 C 94.710938 138.136719 81.71875 125.09375 81.691406 109.4375 C 81.664062 93.765625 94.753906 80.734375 110.398438 80.734375 C 126.375 80.734375 138.675781 93.78125 139.109375 109.4375 C 139.351562 118.648438 153.707031 118.691406 153.460938 109.4375 C 152.972656 91.527344 142.378906 75.5 125.414062 69.113281 C 108.648438 62.796875 88.96875 67.992188 77.484375 81.726562 C 65.957031 95.515625 64.09375 115.59375 73.207031 131.175781 C 82.335938 146.734375 100.453125 154.796875 118.121094 151.769531 C 138.71875 148.226562 152.902344 129.84375 153.460938 109.4375 C 153.707031 100.195312 139.351562 100.210938 139.109375 109.4375 Z M 139.109375 109.4375 " fill-opacity="1" fill-rule="nonzero"/><path fill="#fba48a" d="M 139.109375 252.882812 C 138.691406 268.539062 126.375 281.582031 110.398438 281.582031 C 94.710938 281.582031 81.71875 268.539062 81.691406 252.882812 C 81.664062 237.210938 94.753906 224.183594 110.398438 224.183594 C 126.375 224.183594 138.675781 237.226562 139.109375 252.882812 C 139.351562 262.097656 153.707031 262.140625 153.460938 252.882812 C 152.972656 234.972656 142.378906 218.945312 125.414062 212.558594 C 108.648438 206.246094 88.96875 211.4375 77.484375 225.171875 C 65.957031 238.964844 64.09375 259.039062 73.207031 274.625 C 82.324219 290.195312 100.453125 298.246094 118.121094 295.214844 C 138.71875 291.6875 152.902344 273.304688 153.460938 252.898438 C 153.707031 243.65625 139.351562 243.65625 139.109375 252.882812 Z M 139.109375 252.882812 " fill-opacity="1" fill-rule="nonzero"/><path fill="#fba48a" d="M 139.109375 396.386719 C 138.691406 412.042969 126.375 425.085938 110.398438 425.085938 C 94.710938 425.085938 81.71875 412.042969 81.691406 396.386719 C 81.664062 380.714844 94.753906 367.6875 110.398438 367.6875 C 126.375 367.6875 138.675781 380.730469 139.109375 396.386719 C 139.351562 405.597656 153.707031 405.640625 153.460938 396.386719 C 152.972656 378.476562 142.378906 362.449219 125.414062 356.0625 C 108.648438 349.746094 88.96875 354.941406 77.484375 368.675781 C 65.957031 382.464844 64.09375 402.542969 73.207031 418.128906 C 82.324219 433.699219 100.453125 441.746094 118.121094 438.71875 C 138.71875 435.191406 152.902344 416.808594 153.460938 396.402344 C 153.707031 387.160156 139.351562 387.160156 139.109375 396.386719 Z M 139.109375 396.386719 " fill-opacity="1" fill-rule="nonzero"/><path fill="#fba48a" d="M 139.109375 539.859375 C 138.691406 555.515625 126.375 568.5625 110.398438 568.5625 C 94.710938 568.5625 81.71875 555.515625 81.691406 539.859375 C 81.664062 524.191406 94.753906 511.160156 110.398438 511.160156 C 126.375 511.160156 138.675781 524.203125 139.109375 539.859375 C 139.351562 549.074219 153.707031 549.117188 153.460938 539.859375 C 152.972656 521.953125 142.378906 505.921875 125.414062 499.535156 C 108.648438 493.222656 88.96875 498.417969 77.484375 512.152344 C 65.957031 525.941406 64.09375 546.015625 73.207031 561.601562 C 82.324219 577.171875 100.453125 585.222656 118.121094 582.195312 C 138.71875 578.664062 152.902344 560.28125 153.460938 539.875 C 153.707031 530.621094 139.351562 530.632812 139.109375 539.859375 Z M 139.109375 539.859375 " fill-opacity="1" fill-rule="nonzero"/><path fill="#fba48a" d="M 139.109375 683.394531 C 138.691406 699.050781 126.375 712.09375 110.398438 712.09375 C 94.710938 712.09375 81.71875 699.050781 81.691406 683.394531 C 81.664062 667.722656 94.753906 654.691406 110.398438 654.691406 C 126.375 654.691406 138.675781 667.738281 139.109375 683.394531 C 139.351562 692.605469 153.707031 692.648438 153.460938 683.394531 C 152.972656 665.484375 142.378906 649.453125 125.414062 643.070312 C 108.648438 636.753906 88.96875 641.949219 77.484375 655.683594 C 65.957031 669.472656 64.09375 689.550781 73.207031 705.132812 C 82.324219 720.703125 100.453125 728.753906 118.121094 725.726562 C 138.71875 722.195312 152.902344 703.8125 153.460938 683.40625 C 153.707031 674.167969 139.351562 674.167969 139.109375 683.394531 Z M 139.109375 683.394531 " fill-opacity="1" fill-rule="nonzero"/><path fill="#fba48a" d="M 282.648438 109.4375 C 282.234375 125.09375 269.917969 138.136719 253.941406 138.136719 C 238.25 138.136719 225.261719 125.09375 225.234375 109.4375 C 225.203125 93.765625 238.292969 80.734375 253.941406 80.734375 C 269.917969 80.734375 282.234375 93.78125 282.648438 109.4375 C 282.894531 118.648438 297.246094 118.691406 297.003906 109.4375 C 296.515625 91.527344 285.921875 75.5 268.957031 69.113281 C 252.191406 62.796875 232.511719 67.992188 221.027344 81.726562 C 209.5 95.515625 207.632812 115.59375 216.75 131.175781 C 225.863281 146.746094 243.992188 154.796875 261.664062 151.769531 C 282.261719 148.238281 296.441406 129.855469 297.003906 109.449219 C 297.261719 100.195312 282.90625 100.210938 282.648438 109.4375 Z M 282.648438 109.4375 " fill-opacity="1" fill-rule="nonzero"/><path fill="#fba48a" d="M 282.648438 252.867188 C 282.234375 268.523438 269.917969 281.570312 253.941406 281.570312 C 238.25 281.570312 225.261719 268.523438 225.234375 252.867188 C 225.203125 237.199219 238.292969 224.167969 253.941406 224.167969 C 269.917969 224.167969 282.234375 237.210938 282.648438 252.867188 C 282.894531 262.082031 297.246094 262.125 297.003906 252.867188 C 296.515625 234.960938 285.921875 218.929688 268.957031 212.542969 C 252.191406 206.230469 232.511719 211.425781 221.027344 225.15625 C 209.5 238.949219 207.632812 259.023438 216.75 274.609375 C 225.863281 290.179688 243.992188 298.230469 261.664062 295.203125 C 282.261719 291.671875 296.441406 273.289062 297.003906 252.882812 C 297.261719 243.625 282.90625 243.640625 282.648438 252.867188 Z M 282.648438 252.867188 " fill-opacity="1" fill-rule="nonzero"/><path fill="#fba48a" d="M 282.648438 396.371094 C 282.234375 412.027344 269.917969 425.074219 253.941406 425.074219 C 238.25 425.074219 225.261719 412.027344 225.234375 396.371094 C 225.203125 380.703125 238.292969 367.671875 253.941406 367.671875 C 269.917969 367.671875 282.234375 380.714844 282.648438 396.371094 C 282.894531 405.585938 297.246094 405.628906 297.003906 396.371094 C 296.515625 378.460938 285.921875 362.433594 268.957031 356.046875 C 252.191406 349.734375 232.511719 354.929688 221.027344 368.660156 C 209.5 382.453125 207.632812 402.527344 216.75 418.113281 C 225.863281 433.683594 243.992188 441.734375 261.664062 438.707031 C 282.261719 435.175781 296.441406 416.792969 297.003906 396.386719 C 297.261719 387.128906 282.90625 387.144531 282.648438 396.371094 Z M 282.648438 396.371094 " fill-opacity="1" fill-rule="nonzero"/><path fill="#fba48a" d="M 282.648438 539.847656 C 282.234375 555.503906 269.917969 568.546875 253.941406 568.546875 C 238.25 568.546875 225.261719 555.503906 225.234375 539.847656 C 225.203125 524.175781 238.292969 511.144531 253.941406 511.144531 C 269.917969 511.144531 282.234375 524.191406 282.648438 539.847656 C 282.894531 549.058594 297.246094 549.101562 297.003906 539.847656 C 296.515625 521.9375 285.921875 505.910156 268.957031 499.523438 C 252.191406 493.207031 232.511719 498.402344 221.027344 512.136719 C 209.5 525.925781 207.632812 546.003906 216.75 561.585938 C 225.863281 577.15625 243.992188 585.207031 261.664062 582.179688 C 282.261719 578.648438 296.441406 560.265625 297.003906 539.859375 C 297.261719 530.605469 282.90625 530.605469 282.648438 539.847656 Z M 282.648438 539.847656 " fill-opacity="1" fill-rule="nonzero"/><path fill="#fba48a" d="M 282.648438 683.378906 C 282.234375 699.035156 269.917969 712.078125 253.941406 712.078125 C 238.25 712.078125 225.261719 699.035156 225.234375 683.378906 C 225.203125 667.707031 238.292969 654.679688 253.941406 654.679688 C 269.917969 654.679688 282.234375 667.722656 282.648438 683.378906 C 282.894531 692.59375 297.246094 692.636719 297.003906 683.378906 C 296.515625 665.46875 285.921875 649.441406 268.957031 643.054688 C 252.191406 636.742188 232.511719 641.933594 221.027344 655.667969 C 209.5 669.460938 207.632812 689.535156 216.75 705.121094 C 225.863281 720.691406 243.992188 728.742188 261.664062 725.710938 C 282.261719 722.183594 296.441406 703.800781 297.003906 683.394531 C 297.261719 674.136719 282.90625 674.152344 282.648438 683.378906 Z M 282.648438 683.378906 " fill-opacity="1" fill-rule="nonzero"/><path fill="#fba48a" d="M 426.175781 109.4375 C 425.757812 125.09375 413.445312 138.136719 397.46875 138.136719 C 381.777344 138.136719 368.789062 125.09375 368.757812 109.4375 C 368.730469 93.765625 381.820312 80.734375 397.46875 80.734375 C 413.445312 80.734375 425.761719 93.78125 426.175781 109.4375 C 426.421875 118.648438 440.773438 118.691406 440.53125 109.4375 C 440.042969 91.527344 429.449219 75.5 412.480469 69.113281 C 395.714844 62.796875 376.035156 67.992188 364.554688 81.726562 C 353.027344 95.515625 351.160156 115.59375 360.277344 131.175781 C 369.390625 146.746094 387.519531 154.796875 405.191406 151.769531 C 425.789062 148.238281 439.96875 129.855469 440.53125 109.449219 C 440.773438 100.195312 426.421875 100.210938 426.175781 109.4375 Z M 426.175781 109.4375 " fill-opacity="1" fill-rule="nonzero"/><path fill="#fba48a" d="M 426.175781 252.910156 C 425.757812 268.566406 413.445312 281.613281 397.46875 281.613281 C 381.777344 281.613281 368.789062 268.566406 368.757812 252.910156 C 368.730469 237.242188 381.820312 224.210938 397.46875 224.210938 C 413.445312 224.210938 425.761719 237.253906 426.175781 252.910156 C 426.421875 262.125 440.773438 262.167969 440.53125 252.910156 C 440.042969 235.003906 429.449219 218.972656 412.480469 212.585938 C 395.714844 206.273438 376.035156 211.46875 364.554688 225.199219 C 353.027344 238.992188 351.160156 259.066406 360.277344 274.652344 C 369.390625 290.222656 387.519531 298.273438 405.191406 295.246094 C 425.789062 291.714844 439.96875 273.332031 440.53125 252.925781 C 440.773438 243.667969 426.421875 243.683594 426.175781 252.910156 Z M 426.175781 252.910156 " fill-opacity="1" fill-rule="nonzero"/><path fill="#fba48a" d="M 426.175781 396.414062 C 425.757812 412.070312 413.445312 425.117188 397.46875 425.117188 C 381.777344 425.117188 368.789062 412.070312 368.757812 396.414062 C 368.730469 380.746094 381.820312 367.714844 397.46875 367.714844 C 413.445312 367.714844 425.761719 380.757812 426.175781 396.414062 C 426.421875 405.628906 440.773438 405.671875 440.53125 396.414062 C 440.042969 378.507812 429.449219 362.476562 412.480469 356.089844 C 395.714844 349.777344 376.035156 354.972656 364.554688 368.703125 C 353.027344 382.496094 351.160156 402.570312 360.277344 418.15625 C 369.390625 433.726562 387.519531 441.777344 405.191406 438.75 C 425.789062 435.21875 439.96875 416.835938 440.53125 396.429688 C 440.773438 387.171875 426.421875 387.1875 426.175781 396.414062 Z M 426.175781 396.414062 " fill-opacity="1" fill-rule="nonzero"/><path fill="#fba48a" d="M 426.175781 539.890625 C 425.757812 555.546875 413.445312 568.589844 397.46875 568.589844 C 381.777344 568.589844 368.789062 555.546875 368.757812 539.890625 C 368.730469 524.21875 381.820312 511.1875 397.46875 511.1875 C 413.445312 511.1875 425.761719 524.234375 426.175781 539.890625 C 426.421875 549.101562 440.773438 549.144531 440.53125 539.890625 C 440.042969 521.980469 429.449219 505.953125 412.480469 499.566406 C 395.714844 493.25 376.035156 498.445312 364.554688 512.179688 C 353.027344 525.96875 351.160156 546.046875 360.277344 561.628906 C 369.390625 577.199219 387.519531 585.25 405.191406 582.222656 C 425.789062 578.691406 439.96875 560.308594 440.53125 539.90625 C 440.773438 530.648438 426.421875 530.648438 426.175781 539.890625 Z M 426.175781 539.890625 " fill-opacity="1" fill-rule="nonzero"/><path fill="#fba48a" d="M 426.175781 683.421875 C 425.757812 699.078125 413.445312 712.121094 397.46875 712.121094 C 381.777344 712.121094 368.789062 699.078125 368.757812 683.421875 C 368.730469 667.75 381.820312 654.722656 397.46875 654.722656 C 413.445312 654.722656 425.761719 667.765625 426.175781 683.421875 C 426.421875 692.636719 440.773438 692.679688 440.53125 683.421875 C 440.042969 665.511719 429.449219 649.484375 412.480469 643.097656 C 395.714844 636.785156 376.035156 641.976562 364.554688 655.710938 C 353.027344 669.503906 351.160156 689.578125 360.277344 705.164062 C 369.390625 720.734375 387.519531 728.785156 405.191406 725.753906 C 425.789062 722.226562 439.96875 703.84375 440.53125 683.4375 C 440.773438 674.179688 426.421875 674.195312 426.175781 683.421875 Z M 426.175781 683.421875 " fill-opacity="1" fill-rule="nonzero"/><path fill="#fba48a" d="M 569.71875 109.4375 C 569.300781 125.09375 556.984375 138.136719 541.007812 138.136719 C 525.320312 138.136719 512.328125 125.09375 512.300781 109.4375 C 512.273438 93.765625 525.363281 80.734375 541.007812 80.734375 C 557 80.734375 569.300781 93.78125 569.71875 109.4375 C 569.960938 118.648438 584.316406 118.691406 584.070312 109.4375 C 583.582031 91.527344 572.988281 75.5 556.023438 69.113281 C 539.257812 62.796875 519.578125 67.992188 508.09375 81.726562 C 496.570312 95.515625 494.703125 115.59375 503.816406 131.175781 C 512.933594 146.746094 531.0625 154.796875 548.730469 151.769531 C 569.328125 148.238281 583.511719 129.855469 584.070312 109.449219 C 584.328125 100.195312 569.976562 100.210938 569.71875 109.4375 Z M 569.71875 109.4375 " fill-opacity="1" fill-rule="nonzero"/><path fill="#fba48a" d="M 569.71875 252.882812 C 569.300781 268.539062 556.984375 281.582031 541.007812 281.582031 C 525.320312 281.582031 512.328125 268.539062 512.300781 252.882812 C 512.273438 237.210938 525.363281 224.183594 541.007812 224.183594 C 557 224.183594 569.300781 237.226562 569.71875 252.882812 C 569.960938 262.097656 584.316406 262.140625 584.070312 252.882812 C 583.582031 234.972656 572.988281 218.945312 556.023438 212.558594 C 539.257812 206.246094 519.578125 211.4375 508.09375 225.171875 C 496.570312 238.964844 494.703125 259.039062 503.816406 274.625 C 512.933594 290.195312 531.0625 298.246094 548.730469 295.214844 C 569.328125 291.6875 583.511719 273.304688 584.070312 252.898438 C 584.328125 243.65625 569.976562 243.65625 569.71875 252.882812 Z M 569.71875 252.882812 " fill-opacity="1" fill-rule="nonzero"/><path fill="#fba48a" d="M 569.71875 396.386719 C 569.300781 412.042969 556.984375 425.085938 541.007812 425.085938 C 525.320312 425.085938 512.328125 412.042969 512.300781 396.386719 C 512.273438 380.714844 525.363281 367.6875 541.007812 367.6875 C 557 367.6875 569.300781 380.730469 569.71875 396.386719 C 569.960938 405.597656 584.316406 405.640625 584.070312 396.386719 C 583.582031 378.476562 572.988281 362.449219 556.023438 356.0625 C 539.257812 349.746094 519.578125 354.941406 508.09375 368.675781 C 496.570312 382.464844 494.703125 402.542969 503.816406 418.128906 C 512.933594 433.699219 531.0625 441.746094 548.730469 438.71875 C 569.328125 435.191406 583.511719 416.808594 584.070312 396.402344 C 584.328125 387.160156 569.976562 387.160156 569.71875 396.386719 Z M 569.71875 396.386719 " fill-opacity="1" fill-rule="nonzero"/><path fill="#fba48a" d="M 569.71875 539.859375 C 569.300781 555.515625 556.984375 568.5625 541.007812 568.5625 C 525.320312 568.5625 512.328125 555.515625 512.300781 539.859375 C 512.273438 524.191406 525.363281 511.160156 541.007812 511.160156 C 557 511.160156 569.300781 524.203125 569.71875 539.859375 C 569.960938 549.074219 584.316406 549.117188 584.070312 539.859375 C 583.582031 521.953125 572.988281 505.921875 556.023438 499.535156 C 539.257812 493.222656 519.578125 498.417969 508.09375 512.152344 C 496.570312 525.941406 494.703125 546.015625 503.816406 561.601562 C 512.933594 577.171875 531.0625 585.222656 548.730469 582.195312 C 569.328125 578.664062 583.511719 560.28125 584.070312 539.875 C 584.328125 530.621094 569.976562 530.632812 569.71875 539.859375 Z M 569.71875 539.859375 " fill-opacity="1" fill-rule="nonzero"/><path fill="#fba48a" d="M 569.71875 683.394531 C 569.300781 699.050781 556.984375 712.09375 541.007812 712.09375 C 525.320312 712.09375 512.328125 699.050781 512.300781 683.394531 C 512.273438 667.722656 525.363281 654.691406 541.007812 654.691406 C 557 654.691406 569.300781 667.738281 569.71875 683.394531 C 569.960938 692.605469 584.316406 692.648438 584.070312 683.394531 C 583.582031 665.484375 572.988281 649.453125 556.023438 643.070312 C 539.257812 636.753906 519.578125 641.949219 508.09375 655.683594 C 496.570312 669.472656 494.703125 689.550781 503.816406 705.132812 C 512.933594 720.703125 531.0625 728.753906 548.730469 725.726562 C 569.328125 722.195312 583.511719 703.8125 584.070312 683.40625 C 584.328125 674.167969 569.976562 674.167969 569.71875 683.394531 Z M 569.71875 683.394531 " fill-opacity="1" fill-rule="nonzero"/><g clip-path="url(#d97f1205d7)"><path fill="#fba48a" d="M 713.273438 109.4375 C 712.855469 125.09375 700.542969 138.136719 684.566406 138.136719 C 668.875 138.136719 655.886719 125.09375 655.855469 109.4375 C 655.828125 93.765625 668.917969 80.734375 684.566406 80.734375 C 700.542969 80.734375 712.855469 93.78125 713.273438 109.4375 C 713.515625 118.648438 727.871094 118.691406 727.628906 109.4375 C 727.140625 91.527344 716.546875 75.5 699.578125 69.113281 C 682.8125 62.796875 663.132812 67.992188 651.652344 81.726562 C 640.125 95.515625 638.257812 115.59375 647.375 131.175781 C 656.488281 146.746094 674.617188 154.796875 692.289062 151.769531 C 712.886719 148.238281 727.066406 129.855469 727.628906 109.449219 C 727.886719 100.195312 713.53125 100.210938 713.273438 109.4375 Z M 713.273438 109.4375 " fill-opacity="1" fill-rule="nonzero"/></g><g clip-path="url(#99f8711770)"><path fill="#fba48a" d="M 713.273438 252.882812 C 712.855469 268.539062 700.542969 281.582031 684.566406 281.582031 C 668.875 281.582031 655.886719 268.539062 655.855469 252.882812 C 655.828125 237.210938 668.917969 224.183594 684.566406 224.183594 C 700.542969 224.183594 712.855469 237.226562 713.273438 252.882812 C 713.515625 262.097656 727.871094 262.140625 727.628906 252.882812 C 727.140625 234.972656 716.546875 218.945312 699.578125 212.558594 C 682.8125 206.246094 663.132812 211.4375 651.652344 225.171875 C 640.125 238.964844 638.257812 259.039062 647.375 274.625 C 656.488281 290.195312 674.617188 298.246094 692.289062 295.214844 C 712.886719 291.6875 727.066406 273.304688 727.628906 252.898438 C 727.886719 243.65625 713.53125 243.65625 713.273438 252.882812 Z M 713.273438 252.882812 " fill-opacity="1" fill-rule="nonzero"/></g><g clip-path="url(#e411c3ea0f)"><path fill="#fba48a" d="M 713.273438 396.386719 C 712.855469 412.042969 700.542969 425.085938 684.566406 425.085938 C 668.875 425.085938 655.886719 412.042969 655.855469 396.386719 C 655.828125 380.714844 668.917969 367.6875 684.566406 367.6875 C 700.542969 367.6875 712.855469 380.730469 713.273438 396.386719 C 713.515625 405.597656 727.871094 405.640625 727.628906 396.386719 C 727.140625 378.476562 716.546875 362.449219 699.578125 356.0625 C 682.8125 349.746094 663.132812 354.941406 651.652344 368.675781 C 640.125 382.464844 638.257812 402.542969 647.375 418.128906 C 656.488281 433.699219 674.617188 441.746094 692.289062 438.71875 C 712.886719 435.191406 727.066406 416.808594 727.628906 396.402344 C 727.886719 387.160156 713.53125 387.160156 713.273438 396.386719 Z M 713.273438 396.386719 " fill-opacity="1" fill-rule="nonzero"/></g><g clip-path="url(#706752f279)"><path fill="#fba48a" d="M 713.273438 539.859375 C 712.855469 555.515625 700.542969 568.5625 684.566406 568.5625 C 668.875 568.5625 655.886719 555.515625 655.855469 539.859375 C 655.828125 524.191406 668.917969 511.160156 684.566406 511.160156 C 700.542969 511.160156 712.855469 524.203125 713.273438 539.859375 C 713.515625 549.074219 727.871094 549.117188 727.628906 539.859375 C 727.140625 521.953125 716.546875 505.921875 699.578125 499.535156 C 682.8125 493.222656 663.132812 498.417969 651.652344 512.152344 C 640.125 525.941406 638.257812 546.015625 647.375 561.601562 C 656.488281 577.171875 674.617188 585.222656 692.289062 582.195312 C 712.886719 578.664062 727.066406 560.28125 727.628906 539.875 C 727.886719 530.621094 713.53125 530.632812 713.273438 539.859375 Z M 713.273438 539.859375 " fill-opacity="1" fill-rule="nonzero"/></g><g clip-path="url(#1470714ea2)"><path fill="#fba48a" d="M 713.273438 683.394531 C 712.855469 699.050781 700.542969 712.09375 684.566406 712.09375 C 668.875 712.09375 655.886719 699.050781 655.855469 683.394531 C 655.828125 667.722656 668.917969 654.691406 684.566406 654.691406 C 700.542969 654.691406 712.855469 667.738281 713.273438 683.394531 C 713.515625 692.605469 727.871094 692.648438 727.628906 683.394531 C 727.140625 665.484375 716.546875 649.453125 699.578125 643.070312 C 682.8125 636.753906 663.132812 641.949219 651.652344 655.683594 C 640.125 669.472656 638.257812 689.550781 647.375 705.132812 C 656.488281 720.703125 674.617188 728.753906 692.289062 725.726562 C 712.886719 722.195312 727.066406 703.8125 727.628906 683.40625 C 727.886719 674.167969 713.53125 674.167969 713.273438 683.394531 Z M 713.273438 683.394531 " fill-opacity="1" fill-rule="nonzero"/></g></svg>