<svg xmlns="http://www.w3.org/2000/svg" xmlns:xlink="http://www.w3.org/1999/xlink" width="1920" zoomAndPan="magnify" viewBox="0 0 1440 809.999993" height="1080" preserveAspectRatio="xMidYMid meet" version="1.0"><defs><clipPath id="ea27ce86fa"><path d="M 61.242188 263 L 375 263 L 375 577.417969 L 61.242188 577.417969 Z M 61.242188 263 " clip-rule="nonzero"/></clipPath><clipPath id="b4db71c688"><path d="M 549 263 L 863 263 L 863 577.417969 L 549 577.417969 Z M 549 263 " clip-rule="nonzero"/></clipPath><clipPath id="11562f345a"><path d="M 1035 263 L 1349 263 L 1349 577.417969 L 1035 577.417969 Z M 1035 263 " clip-rule="nonzero"/></clipPath><clipPath id="9e328b82a4"><path d="M 89 237.667969 L 424 237.667969 L 424 573 L 89 573 Z M 89 237.667969 " clip-rule="nonzero"/></clipPath><clipPath id="e6e6da561a"><path d="M 577 237.667969 L 912 237.667969 L 912 573 L 577 573 Z M 577 237.667969 " clip-rule="nonzero"/></clipPath><clipPath id="264c083ae2"><path d="M 1063 237.667969 L 1397.742188 237.667969 L 1397.742188 573 L 1063 573 Z M 1063 237.667969 " clip-rule="nonzero"/></clipPath></defs><g clip-path="url(#ea27ce86fa)"><path fill="#f4a64e" d="M 217.957031 263.585938 C 304.507812 263.585938 374.660156 333.746094 374.660156 420.289062 C 374.660156 506.839844 304.507812 577.007812 217.957031 577.007812 C 131.402344 577.007812 61.242188 506.839844 61.242188 420.289062 C 61.242188 333.746094 131.402344 263.585938 217.957031 263.585938 " fill-opacity="1" fill-rule="nonzero"/></g><g clip-path="url(#b4db71c688)"><path fill="#f4a64e" d="M 705.988281 263.585938 C 792.53125 263.585938 862.695312 333.746094 862.695312 420.289062 C 862.695312 506.839844 792.53125 577.007812 705.988281 577.007812 C 619.445312 577.007812 549.277344 506.839844 549.277344 420.289062 C 549.277344 333.746094 619.445312 263.585938 705.988281 263.585938 " fill-opacity="1" fill-rule="nonzero"/></g><g clip-path="url(#11562f345a)"><path fill="#f4a64e" d="M 1192.292969 263.585938 C 1278.835938 263.585938 1349 333.746094 1349 420.289062 C 1349 506.839844 1278.835938 577.007812 1192.292969 577.007812 C 1105.75 577.007812 1035.585938 506.839844 1035.585938 420.289062 C 1035.585938 333.746094 1105.75 263.585938 1192.292969 263.585938 " fill-opacity="1" fill-rule="nonzero"/></g><g clip-path="url(#9e328b82a4)"><path fill="#85dbd9" d="M 402.695312 404.890625 C 401.917969 470.652344 358.589844 527.683594 295.34375 545.898438 C 231.820312 564.203125 163.75 534.488281 130.183594 478.703125 C 96.039062 421.945312 107.460938 348.132812 153.046875 301.46875 C 199.296875 254.140625 273.546875 246.261719 330.28125 278.605469 C 375.355469 304.300781 402.082031 353.59375 402.695312 404.890625 C 402.863281 418.371094 423.816406 418.394531 423.621094 404.890625 C 422.867188 342.859375 389.082031 286.472656 334.410156 256.972656 C 279.464844 227.332031 210.523438 232.964844 159.816406 268.523438 C 109.511719 303.800781 82.601562 366.277344 90.851562 427.035156 C 99.179688 488.402344 140.644531 538.84375 197.839844 561.441406 C 248.839844 581.609375 308.679688 572.40625 353.121094 541.269531 C 397.453125 510.15625 422.980469 458.652344 423.621094 404.890625 C 423.789062 391.386719 402.863281 391.410156 402.699219 404.890625 " fill-opacity="1" fill-rule="nonzero"/></g><g clip-path="url(#e6e6da561a)"><path fill="#85dbd9" d="M 890.734375 404.890625 C 889.953125 470.652344 846.625 527.683594 783.378906 545.898438 C 719.851562 564.203125 651.777344 534.488281 618.214844 478.703125 C 584.066406 421.945312 595.507812 348.132812 641.09375 301.46875 C 687.324219 254.140625 761.589844 246.261719 818.308594 278.605469 C 863.394531 304.300781 890.121094 353.59375 890.734375 404.890625 C 890.902344 418.371094 911.824219 418.394531 911.65625 404.890625 C 910.90625 342.859375 877.117188 286.472656 822.4375 256.972656 C 767.503906 227.332031 698.566406 232.964844 647.84375 268.523438 C 597.542969 303.800781 570.648438 366.277344 578.878906 427.035156 C 587.191406 488.402344 628.679688 538.84375 685.871094 561.441406 C 736.871094 581.582031 796.714844 572.40625 841.15625 541.242188 C 885.488281 510.15625 911.015625 458.652344 911.65625 404.890625 C 911.824219 391.386719 890.902344 391.410156 890.734375 404.890625 " fill-opacity="1" fill-rule="nonzero"/></g><g clip-path="url(#264c083ae2)"><path fill="#85dbd9" d="M 1377.039062 404.890625 C 1376.230469 470.652344 1332.933594 527.683594 1269.683594 545.898438 C 1206.160156 564.203125 1138.085938 534.488281 1104.523438 478.703125 C 1070.375 421.945312 1081.785156 348.132812 1127.402344 301.46875 C 1173.628906 254.140625 1247.894531 246.261719 1304.613281 278.605469 C 1349.671875 304.300781 1376.425781 353.59375 1377.039062 404.890625 C 1377.234375 418.371094 1398.160156 418.394531 1397.964844 404.890625 C 1397.210938 342.859375 1363.425781 286.472656 1308.742188 256.972656 C 1253.808594 227.332031 1184.871094 232.953125 1134.152344 268.523438 C 1083.851562 303.800781 1056.957031 366.277344 1065.1875 427.035156 C 1073.527344 488.402344 1114.984375 538.84375 1172.179688 561.441406 C 1223.175781 581.582031 1283.019531 572.40625 1327.464844 541.242188 C 1371.796875 510.15625 1397.324219 458.652344 1397.964844 404.890625 C 1398.160156 391.386719 1377.234375 391.410156 1377.039062 404.890625 " fill-opacity="1" fill-rule="nonzero"/></g></svg>