<svg xmlns="http://www.w3.org/2000/svg" xmlns:xlink="http://www.w3.org/1999/xlink" width="500" zoomAndPan="magnify" viewBox="0 0 375 374.999991" height="500" preserveAspectRatio="xMidYMid meet" version="1.0"><defs><clipPath id="8c6d930b75"><path d="M 191 148 L 375 148 L 375 375 L 191 375 Z M 191 148 " clip-rule="nonzero"/></clipPath><clipPath id="4f3aace029"><path d="M 232.441406 130.066406 L 558.027344 179.035156 L 506.269531 523.164062 L 180.679688 474.195312 Z M 232.441406 130.066406 " clip-rule="nonzero"/></clipPath><clipPath id="aae4126893"><path d="M 232.441406 130.066406 L 408.214844 156.503906 L 366.941406 430.914062 L 191.167969 404.480469 Z M 232.441406 130.066406 " clip-rule="nonzero"/></clipPath><clipPath id="5936524919"><path d="M 232.441406 130.066406 L 558.027344 179.035156 L 506.269531 523.164062 L 180.679688 474.195312 Z M 232.441406 130.066406 " clip-rule="nonzero"/></clipPath></defs><g clip-path="url(#8c6d930b75)"><g clip-path="url(#4f3aace029)"><g clip-path="url(#aae4126893)"><g clip-path="url(#5936524919)"><path fill="#aed3b0" d="M 415.21875 509.441406 C 414.628906 509.351562 414.035156 509.257812 413.445312 509.171875 C 410.867188 508.785156 408.289062 508.398438 405.710938 508.015625 C 403.277344 507.667969 400.988281 506.789062 398.71875 505.929688 C 393.179688 503.835938 387.75 501.464844 382.519531 498.671875 C 379.003906 496.789062 375.59375 494.730469 372.21875 492.609375 C 364.582031 487.808594 357.226562 482.566406 349.429688 478.023438 C 344.425781 475.109375 339.203125 472.6875 333.648438 471.003906 C 330.980469 470.195312 328.3125 469.445312 325.585938 468.855469 C 323.980469 468.507812 322.386719 468.066406 320.753906 467.925781 C 317.6875 467.664062 314.617188 467.414062 311.535156 467.3125 C 307.957031 467.195312 304.386719 467.226562 300.8125 467.308594 C 297.878906 467.378906 294.953125 467.625 292.042969 467.925781 C 286.691406 468.476562 281.367188 469.261719 276.09375 470.316406 C 269.882812 471.558594 263.644531 472.515625 257.328125 472.992188 C 253.957031 473.25 250.59375 473.191406 247.207031 472.980469 C 242.960938 472.722656 238.785156 472.019531 234.613281 471.308594 C 229.066406 470.363281 223.902344 468.339844 219.171875 465.234375 C 217.210938 463.949219 215.335938 462.558594 213.476562 461.128906 C 211.683594 459.746094 210.222656 458.046875 208.742188 456.371094 C 207.289062 454.726562 205.921875 453.011719 204.617188 451.238281 C 201.789062 447.394531 199.644531 443.175781 197.855469 438.78125 C 195.019531 431.816406 193.207031 424.558594 192.109375 417.132812 C 191.570312 413.488281 191.433594 409.804688 191.640625 406.105469 C 191.710938 404.859375 191.785156 403.621094 191.933594 402.386719 C 192.378906 400.535156 192.367188 398.644531 192.5 396.761719 C 192.648438 394.617188 193.632812 392.636719 193.722656 390.484375 C 194.304688 387.542969 195.273438 384.714844 196.257812 381.894531 C 197.457031 378.457031 198.699219 375.042969 200.3125 371.765625 C 201.835938 368.671875 203.539062 365.683594 205.382812 362.777344 C 207.144531 359.992188 208.933594 357.214844 210.847656 354.535156 C 214.738281 349.089844 218.789062 343.761719 222.976562 338.542969 C 226.789062 333.792969 230.46875 328.9375 234.277344 324.183594 C 237.625 320.007812 240.796875 315.707031 243.777344 311.269531 C 247.59375 305.582031 251.085938 299.714844 253.621094 293.316406 C 254.925781 290.027344 256.011719 286.675781 256.902344 283.242188 C 257.578125 280.664062 258.007812 278.050781 258.246094 275.425781 C 258.503906 272.605469 258.785156 269.78125 258.769531 266.929688 C 258.753906 264.042969 258.984375 261.15625 259.058594 258.269531 C 259.125 255.734375 259.136719 253.195312 259.152344 250.65625 C 259.175781 247.570312 259.175781 244.484375 259.195312 241.398438 C 259.207031 238.761719 259.210938 236.121094 259.261719 233.484375 C 259.300781 231.492188 259.304688 229.496094 259.507812 227.515625 C 259.9375 223.25 260.082031 218.945312 260.820312 214.714844 C 262.390625 205.707031 265.121094 197.097656 269.898438 189.222656 C 272.414062 185.070312 275.351562 181.21875 278.496094 177.523438 C 281.378906 174.136719 284.546875 171.046875 288.050781 168.285156 C 292.539062 164.753906 297.394531 161.855469 302.441406 159.21875 C 309.539062 155.5 317.152344 153.320312 324.90625 151.609375 C 330.890625 150.289062 336.925781 149.179688 343.050781 148.726562 C 345.972656 148.511719 348.898438 148.429688 351.835938 148.585938 C 355.472656 148.777344 359.082031 149.113281 362.679688 149.660156 C 365.640625 150.109375 368.53125 150.847656 371.441406 151.511719 C 373.96875 152.089844 376.429688 152.851562 378.902344 153.609375 C 381.816406 154.5 384.578125 155.761719 387.269531 157.171875 C 391.078125 159.167969 394.644531 161.554688 398.085938 164.125 C 401.121094 166.394531 404.066406 168.78125 407.097656 171.058594 C 409.933594 173.1875 412.902344 175.121094 415.828125 177.121094 C 420.625 180.394531 425.769531 183 431 185.472656 C 435.0625 187.394531 439.324219 188.765625 443.539062 190.253906 C 445.441406 190.921875 447.429688 191.539062 449.53125 191.332031 C 449.917969 191.292969 450.324219 191.40625 450.71875 191.464844 C 453.289062 191.84375 455.855469 192.234375 458.425781 192.601562 C 461.878906 193.097656 465.261719 193.914062 468.667969 194.671875 C 471.292969 195.257812 473.902344 195.890625 476.488281 196.59375 C 480.085938 197.570312 483.574219 198.914062 486.980469 200.441406 C 491.21875 202.34375 495.34375 204.472656 499.152344 207.125 C 503.492188 210.148438 507.703125 213.363281 511.34375 217.234375 C 515.601562 221.769531 518.320312 227.140625 519.875 233.160156 C 520.816406 236.808594 521.441406 240.488281 521.359375 244.246094 C 521.28125 247.785156 520.816406 251.28125 519.972656 254.753906 C 518.53125 260.660156 515.695312 265.90625 512.761719 271.128906 C 509.527344 276.878906 506.742188 282.847656 504.527344 289.054688 C 503.726562 291.296875 503.0625 293.609375 502.742188 296 C 502.359375 298.824219 501.84375 301.632812 501.515625 304.464844 C 501.234375 306.886719 501.230469 309.335938 501.171875 311.773438 C 501.097656 315.0625 501.179688 318.347656 501.324219 321.628906 C 501.507812 325.863281 501.777344 330.101562 502.621094 334.261719 C 503.703125 339.589844 504.921875 344.894531 506.136719 350.195312 C 506.628906 352.335938 507.214844 354.457031 507.847656 356.558594 C 509.035156 360.480469 510.277344 364.386719 511.519531 368.289062 C 512.957031 372.8125 514.476562 377.3125 515.867188 381.847656 C 517.640625 387.621094 519.457031 393.390625 520.425781 399.375 C 521.253906 404.5 521.84375 409.652344 521.78125 414.847656 C 521.738281 418.183594 521.5625 421.527344 520.984375 424.832031 C 520.625 427.214844 520.265625 429.597656 519.90625 431.976562 C 518.363281 441.035156 514.453125 448.992188 508.824219 456.1875 C 505.453125 460.5 501.46875 464.15625 497.253906 467.609375 C 493.355469 470.808594 489.460938 474.007812 485.308594 476.863281 C 482.140625 479.042969 479.007812 481.269531 475.984375 483.636719 C 472.058594 486.710938 468.195312 489.867188 464.179688 492.832031 C 460.363281 495.648438 456.355469 498.148438 452.199219 500.433594 C 448 502.742188 443.699219 504.828125 439.164062 506.378906 C 433 508.492188 426.675781 509.707031 420.125 509.605469 C 418.488281 509.585938 416.851562 509.5625 415.21875 509.441406 Z M 415.21875 509.441406 " fill-opacity="1" fill-rule="nonzero"/></g></g></g></g></svg>