<svg xmlns="http://www.w3.org/2000/svg" xmlns:xlink="http://www.w3.org/1999/xlink" width="1920" zoomAndPan="magnify" viewBox="0 0 1440 809.999993" height="1080" preserveAspectRatio="xMidYMid meet" version="1.0"><defs><clipPath id="fdf90ee813"><path d="M 236 417 L 368.628906 417 L 368.628906 549.324219 L 236 549.324219 Z M 236 417 " clip-rule="nonzero"/></clipPath><clipPath id="ffd4e5d53b"><path d="M 118.128906 298.824219 L 251 298.824219 L 251 432 L 118.128906 432 Z M 118.128906 298.824219 " clip-rule="nonzero"/></clipPath></defs><g clip-path="url(#fdf90ee813)"><path fill="#f63562" d="M 250.328125 431.03125 L 368.691406 431.03125 L 368.691406 417.5 C 367.226562 417.5 302.664062 417.496094 264.320312 417.496094 C 248.953125 417.496094 236.496094 429.953125 236.496094 445.320312 L 236.496094 549.652344 L 250.328125 549.652344 Z M 250.328125 431.03125 " fill-opacity="1" fill-rule="nonzero"/></g><g clip-path="url(#ffd4e5d53b)"><path fill="#f63562" d="M 236.496094 417.496094 L 118.132812 417.496094 L 118.132812 431.03125 C 119.597656 431.03125 184.160156 431.03125 222.503906 431.035156 C 237.871094 431.035156 250.328125 418.574219 250.328125 403.207031 L 250.328125 298.878906 L 236.496094 298.878906 Z M 236.496094 417.496094 " fill-opacity="1" fill-rule="nonzero"/></g><path stroke-linecap="butt" transform="matrix(-0.749997, 0.00194633, -0.00194633, -0.749997, 1439.964534, 431.302078)" fill="none" stroke-linejoin="miter" d="M 0.00228589 11.001773 L 1242.037774 11.001035 " stroke="#ffffff" stroke-width="22" stroke-opacity="1" stroke-miterlimit="4"/></svg>