<svg xmlns="http://www.w3.org/2000/svg" xmlns:xlink="http://www.w3.org/1999/xlink" width="480" zoomAndPan="magnify" viewBox="0 0 360 359.999987" height="480" preserveAspectRatio="xMidYMid meet" version="1.0"><defs><clipPath id="c405edd8a2"><path d="M 14.765625 13.367188 L 345.515625 13.367188 L 345.515625 344 L 14.765625 344 Z M 14.765625 13.367188 " clip-rule="nonzero"/></clipPath></defs><g clip-path="url(#c405edd8a2)"><path fill="#ffffff" d="M 296.1875 294.890625 L 247.253906 294.890625 L 247.253906 218.296875 C 247.253906 200.039062 246.929688 176.519531 221.808594 176.519531 C 196.6875 176.519531 192.417969 196.425781 192.417969 216.972656 L 192.417969 294.890625 L 143.484375 294.890625 L 143.484375 137.375 L 190.472656 137.375 L 190.472656 158.902344 L 191.125 158.902344 C 200.703125 142.527344 218.519531 132.753906 237.472656 133.453125 C 287.078125 133.453125 296.21875 166.0625 296.21875 208.472656 L 296.21875 294.890625 Z M 88.246094 115.847656 C 72.5625 115.847656 59.839844 103.148438 59.839844 87.476562 C 59.839844 71.800781 72.546875 59.085938 88.230469 59.085938 C 103.914062 59.085938 116.636719 71.785156 116.636719 87.460938 C 116.636719 103.132812 103.929688 115.847656 88.246094 115.847656 M 112.726562 294.890625 L 63.730469 294.890625 L 63.730469 137.375 L 112.726562 137.375 Z M 320.59375 13.652344 L 39.140625 13.652344 C 25.839844 13.511719 14.921875 24.15625 14.765625 37.449219 L 14.765625 319.902344 C 14.921875 333.210938 25.824219 343.855469 39.140625 343.714844 L 320.59375 343.714844 C 333.925781 343.886719 344.871094 333.226562 345.058594 319.902344 L 345.058594 37.433594 C 344.871094 24.109375 333.925781 13.464844 320.59375 13.636719 " fill-opacity="1" fill-rule="nonzero"/></g></svg>