<svg xmlns="http://www.w3.org/2000/svg" xmlns:xlink="http://www.w3.org/1999/xlink" width="1080" zoomAndPan="magnify" viewBox="0 0 810 809.999993" height="1080" preserveAspectRatio="xMidYMid meet" version="1.0"><defs><clipPath id="e3cb3edc87"><path d="M 46.582031 46.582031 L 769.582031 46.582031 L 769.582031 769.582031 L 46.582031 769.582031 Z M 46.582031 46.582031 " clip-rule="nonzero"/></clipPath></defs><g clip-path="url(#e3cb3edc87)"><path fill="#ffffff" d="M 654.308594 769.488281 L 161.765625 769.488281 C 98.253906 769.488281 46.582031 717.820312 46.582031 654.308594 L 46.582031 161.765625 C 46.582031 98.253906 98.253906 46.582031 161.765625 46.582031 L 654.308594 46.582031 C 717.820312 46.582031 769.488281 98.253906 769.488281 161.765625 L 769.488281 654.308594 C 769.488281 717.820312 717.820312 769.488281 654.308594 769.488281 Z M 161.765625 74.933594 C 113.886719 74.933594 74.933594 113.886719 74.933594 161.765625 L 74.933594 654.308594 C 74.933594 702.1875 113.886719 741.140625 161.765625 741.140625 L 654.308594 741.140625 C 702.1875 741.140625 741.140625 702.1875 741.140625 654.308594 L 741.140625 161.765625 C 741.140625 113.886719 702.1875 74.933594 654.308594 74.933594 Z M 161.765625 74.933594 " fill-opacity="1" fill-rule="nonzero"/></g><path fill="#ffffff" d="M 266.289062 228.4375 C 266.289062 229.832031 266.222656 231.21875 266.085938 232.605469 C 265.949219 233.992188 265.746094 235.367188 265.472656 236.734375 C 265.203125 238.101562 264.863281 239.449219 264.460938 240.78125 C 264.054688 242.117188 263.585938 243.425781 263.054688 244.710938 C 262.519531 246 261.925781 247.257812 261.269531 248.484375 C 260.613281 249.710938 259.898438 250.90625 259.125 252.0625 C 258.351562 253.222656 257.523438 254.339844 256.636719 255.414062 C 255.753906 256.492188 254.820312 257.523438 253.835938 258.507812 C 252.851562 259.492188 251.820312 260.425781 250.742188 261.308594 C 249.667969 262.195312 248.550781 263.023438 247.390625 263.796875 C 246.234375 264.570312 245.039062 265.285156 243.8125 265.941406 C 242.582031 266.597656 241.328125 267.191406 240.039062 267.726562 C 238.753906 268.257812 237.441406 268.726562 236.109375 269.132812 C 234.777344 269.535156 233.429688 269.875 232.0625 270.144531 C 230.695312 270.417969 229.320312 270.621094 227.933594 270.757812 C 226.546875 270.894531 225.160156 270.960938 223.765625 270.960938 C 222.375 270.960938 220.984375 270.894531 219.597656 270.757812 C 218.210938 270.621094 216.835938 270.417969 215.46875 270.144531 C 214.105469 269.875 212.753906 269.535156 211.421875 269.132812 C 210.089844 268.726562 208.78125 268.257812 207.492188 267.726562 C 206.207031 267.191406 204.949219 266.597656 203.722656 265.941406 C 202.492188 265.285156 201.300781 264.570312 200.140625 263.796875 C 198.984375 263.023438 197.867188 262.195312 196.789062 261.308594 C 195.714844 260.425781 194.683594 259.492188 193.699219 258.507812 C 192.710938 257.523438 191.777344 256.492188 190.894531 255.414062 C 190.011719 254.339844 189.183594 253.222656 188.410156 252.0625 C 187.636719 250.90625 186.921875 249.710938 186.265625 248.484375 C 185.605469 247.257812 185.011719 246 184.480469 244.710938 C 183.945312 243.425781 183.476562 242.117188 183.074219 240.78125 C 182.667969 239.449219 182.332031 238.101562 182.058594 236.734375 C 181.789062 235.367188 181.582031 233.992188 181.449219 232.605469 C 181.3125 231.21875 181.242188 229.832031 181.242188 228.4375 C 181.242188 227.046875 181.3125 225.65625 181.449219 224.269531 C 181.582031 222.882812 181.789062 221.507812 182.058594 220.140625 C 182.332031 218.777344 182.667969 217.425781 183.074219 216.09375 C 183.476562 214.761719 183.945312 213.453125 184.480469 212.164062 C 185.011719 210.878906 185.605469 209.621094 186.265625 208.394531 C 186.921875 207.164062 187.636719 205.972656 188.410156 204.8125 C 189.183594 203.65625 190.011719 202.539062 190.894531 201.460938 C 191.777344 200.386719 192.710938 199.355469 193.699219 198.371094 C 194.683594 197.386719 195.714844 196.449219 196.789062 195.566406 C 197.867188 194.683594 198.984375 193.855469 200.140625 193.082031 C 201.300781 192.308594 202.492188 191.59375 203.722656 190.9375 C 204.949219 190.28125 206.207031 189.683594 207.492188 189.152344 C 208.78125 188.617188 210.089844 188.148438 211.421875 187.746094 C 212.753906 187.339844 214.105469 187.003906 215.46875 186.730469 C 216.835938 186.460938 218.210938 186.257812 219.597656 186.121094 C 220.984375 185.984375 222.375 185.914062 223.765625 185.914062 C 225.160156 185.914062 226.546875 185.984375 227.933594 186.121094 C 229.320312 186.257812 230.695312 186.460938 232.0625 186.730469 C 233.429688 187.003906 234.777344 187.339844 236.109375 187.746094 C 237.441406 188.148438 238.753906 188.617188 240.039062 189.152344 C 241.328125 189.683594 242.582031 190.28125 243.8125 190.9375 C 245.039062 191.59375 246.234375 192.308594 247.390625 193.082031 C 248.550781 193.855469 249.667969 194.683594 250.742188 195.566406 C 251.820312 196.449219 252.851562 197.386719 253.835938 198.371094 C 254.820312 199.355469 255.753906 200.386719 256.636719 201.460938 C 257.523438 202.539062 258.351562 203.65625 259.125 204.8125 C 259.898438 205.972656 260.613281 207.164062 261.269531 208.394531 C 261.925781 209.621094 262.519531 210.878906 263.054688 212.164062 C 263.585938 213.453125 264.054688 214.761719 264.460938 216.09375 C 264.863281 217.425781 265.203125 218.777344 265.472656 220.140625 C 265.746094 221.507812 265.949219 222.882812 266.085938 224.269531 C 266.222656 225.65625 266.289062 227.046875 266.289062 228.4375 Z M 266.289062 228.4375 " fill-opacity="1" fill-rule="nonzero"/><path fill="#ffffff" d="M 181.242188 357.058594 L 266.289062 357.058594 L 266.289062 634.171875 L 181.242188 634.171875 Z M 181.242188 357.058594 " fill-opacity="1" fill-rule="nonzero"/><path fill="#ffffff" d="M 606.480469 456.820312 L 606.480469 634.003906 L 518.597656 634.003906 L 518.597656 519.898438 C 518.597656 493.304688 497.015625 471.148438 469.699219 471.339844 C 442.148438 471.535156 420.792969 494.699219 420.792969 520.691406 L 420.792969 634.171875 L 335.746094 634.171875 L 335.746094 357.058594 L 420.792969 357.058594 L 420.792969 409.007812 C 420.792969 409.007812 484.652344 337.738281 560.511719 381.554688 C 587.761719 397.285156 605.441406 425.632812 606.480469 456.820312 Z M 606.480469 456.820312 " fill-opacity="1" fill-rule="nonzero"/></svg>