<svg xmlns="http://www.w3.org/2000/svg" xmlns:xlink="http://www.w3.org/1999/xlink" width="500" zoomAndPan="magnify" viewBox="0 0 375 374.999991" height="500" preserveAspectRatio="xMidYMid meet" version="1.0"><defs><clipPath id="b0db3428a9"><path d="M 22.699219 22.699219 L 351.949219 22.699219 L 351.949219 351.949219 L 22.699219 351.949219 Z M 22.699219 22.699219 " clip-rule="nonzero"/></clipPath></defs><g clip-path="url(#b0db3428a9)"><path fill="#000000" d="M 299.488281 351.949219 L 75.160156 351.949219 C 46.234375 351.949219 22.699219 328.414062 22.699219 299.488281 L 22.699219 75.160156 C 22.699219 46.234375 46.234375 22.699219 75.160156 22.699219 L 299.488281 22.699219 C 328.414062 22.699219 351.949219 46.234375 351.949219 75.160156 L 351.949219 299.488281 C 351.949219 328.414062 328.414062 351.949219 299.488281 351.949219 Z M 75.160156 35.609375 C 53.351562 35.609375 35.609375 53.351562 35.609375 75.160156 L 35.609375 299.488281 C 35.609375 321.296875 53.351562 339.039062 75.160156 339.039062 L 299.488281 339.039062 C 321.296875 339.039062 339.039062 321.296875 339.039062 299.488281 L 339.039062 75.160156 C 339.039062 53.351562 321.296875 35.609375 299.488281 35.609375 Z M 75.160156 35.609375 " fill-opacity="1" fill-rule="nonzero"/></g><path fill="#000000" d="M 122.765625 105.527344 C 122.765625 106.160156 122.734375 106.792969 122.671875 107.425781 C 122.609375 108.054688 122.515625 108.683594 122.394531 109.304688 C 122.269531 109.925781 122.117188 110.542969 121.933594 111.148438 C 121.746094 111.753906 121.535156 112.351562 121.292969 112.9375 C 121.046875 113.523438 120.777344 114.097656 120.480469 114.65625 C 120.179688 115.214844 119.855469 115.757812 119.5 116.285156 C 119.148438 116.8125 118.773438 117.324219 118.371094 117.8125 C 117.96875 118.304688 117.542969 118.773438 117.09375 119.222656 C 116.644531 119.667969 116.175781 120.09375 115.683594 120.496094 C 115.195312 120.898438 114.6875 121.277344 114.15625 121.628906 C 113.628906 121.980469 113.085938 122.308594 112.527344 122.605469 C 111.96875 122.90625 111.394531 123.175781 110.808594 123.417969 C 110.222656 123.660156 109.628906 123.875 109.019531 124.058594 C 108.414062 124.242188 107.796875 124.398438 107.175781 124.519531 C 106.554688 124.644531 105.925781 124.738281 105.296875 124.800781 C 104.664062 124.863281 104.03125 124.894531 103.398438 124.894531 C 102.765625 124.894531 102.132812 124.863281 101.5 124.800781 C 100.867188 124.738281 100.242188 124.644531 99.621094 124.519531 C 98.996094 124.398438 98.382812 124.242188 97.777344 124.058594 C 97.167969 123.875 96.574219 123.660156 95.988281 123.417969 C 95.398438 123.175781 94.828125 122.90625 94.269531 122.605469 C 93.707031 122.308594 93.164062 121.980469 92.636719 121.628906 C 92.109375 121.277344 91.601562 120.898438 91.113281 120.496094 C 90.621094 120.09375 90.152344 119.667969 89.703125 119.222656 C 89.253906 118.773438 88.828125 118.304688 88.425781 117.8125 C 88.023438 117.324219 87.648438 116.8125 87.292969 116.285156 C 86.941406 115.757812 86.617188 115.214844 86.316406 114.65625 C 86.019531 114.097656 85.746094 113.523438 85.503906 112.9375 C 85.261719 112.351562 85.046875 111.753906 84.863281 111.148438 C 84.679688 110.542969 84.527344 109.925781 84.402344 109.304688 C 84.277344 108.683594 84.1875 108.054688 84.125 107.425781 C 84.0625 106.792969 84.03125 106.160156 84.03125 105.527344 C 84.03125 104.890625 84.0625 104.257812 84.125 103.628906 C 84.1875 102.996094 84.277344 102.371094 84.402344 101.746094 C 84.527344 101.125 84.679688 100.511719 84.863281 99.902344 C 85.046875 99.296875 85.261719 98.699219 85.503906 98.113281 C 85.746094 97.527344 86.019531 96.957031 86.316406 96.394531 C 86.617188 95.835938 86.941406 95.292969 87.292969 94.765625 C 87.648438 94.238281 88.023438 93.730469 88.425781 93.238281 C 88.828125 92.75 89.253906 92.28125 89.703125 91.832031 C 90.152344 91.382812 90.621094 90.957031 91.113281 90.554688 C 91.601562 90.152344 92.109375 89.773438 92.636719 89.421875 C 93.164062 89.070312 93.707031 88.746094 94.269531 88.445312 C 94.828125 88.144531 95.398438 87.875 95.988281 87.632812 C 96.574219 87.390625 97.167969 87.175781 97.777344 86.992188 C 98.382812 86.808594 98.996094 86.652344 99.621094 86.53125 C 100.242188 86.40625 100.867188 86.3125 101.5 86.25 C 102.132812 86.1875 102.765625 86.160156 103.398438 86.160156 C 104.03125 86.160156 104.664062 86.1875 105.296875 86.25 C 105.925781 86.3125 106.554688 86.40625 107.175781 86.53125 C 107.796875 86.652344 108.414062 86.808594 109.019531 86.992188 C 109.628906 87.175781 110.222656 87.390625 110.808594 87.632812 C 111.394531 87.875 111.96875 88.144531 112.527344 88.445312 C 113.085938 88.746094 113.628906 89.070312 114.15625 89.421875 C 114.6875 89.773438 115.195312 90.152344 115.683594 90.554688 C 116.175781 90.957031 116.644531 91.382812 117.09375 91.832031 C 117.542969 92.28125 117.96875 92.75 118.371094 93.238281 C 118.773438 93.730469 119.148438 94.238281 119.5 94.765625 C 119.855469 95.292969 120.179688 95.835938 120.480469 96.394531 C 120.777344 96.957031 121.046875 97.527344 121.292969 98.113281 C 121.535156 98.699219 121.746094 99.296875 121.933594 99.902344 C 122.117188 100.511719 122.269531 101.125 122.394531 101.746094 C 122.515625 102.371094 122.609375 102.996094 122.671875 103.628906 C 122.734375 104.257812 122.765625 104.890625 122.765625 105.527344 Z M 122.765625 105.527344 " fill-opacity="1" fill-rule="nonzero"/><path fill="#000000" d="M 84.03125 164.105469 L 122.765625 164.105469 L 122.765625 290.320312 L 84.03125 290.320312 Z M 84.03125 164.105469 " fill-opacity="1" fill-rule="nonzero"/><path fill="#000000" d="M 277.707031 209.542969 L 277.707031 290.242188 L 237.679688 290.242188 L 237.679688 238.273438 C 237.679688 226.160156 227.851562 216.066406 215.410156 216.15625 C 202.859375 216.246094 193.136719 226.792969 193.136719 238.632812 L 193.136719 290.320312 L 154.398438 290.320312 L 154.398438 164.105469 L 193.136719 164.105469 L 193.136719 187.765625 C 193.136719 187.765625 222.21875 155.308594 256.769531 175.261719 C 269.179688 182.429688 277.234375 195.339844 277.707031 209.542969 Z M 277.707031 209.542969 " fill-opacity="1" fill-rule="nonzero"/></svg>