<svg xmlns="http://www.w3.org/2000/svg" xmlns:xlink="http://www.w3.org/1999/xlink" width="1920" zoomAndPan="magnify" viewBox="0 0 1440 809.999993" height="1080" preserveAspectRatio="xMidYMid meet" version="1.0"><path fill="#a8879d" d="M 1057.273438 551.289062 L 968.578125 548.910156 C 943.089844 548.230469 924.742188 573.378906 933.578125 597.167969 L 963.480469 680.761719 C 975.714844 714.746094 935.957031 743.628906 907.070312 721.542969 L 836.726562 667.507812 C 816.675781 651.878906 787.113281 661.394531 779.976562 685.859375 L 754.828125 770.816406 C 744.632812 805.476562 695.359375 805.476562 685.164062 770.816406 L 660.019531 685.859375 C 652.882812 661.394531 623.316406 651.878906 603.269531 667.507812 L 532.925781 721.542969 C 504.378906 743.628906 464.621094 714.746094 476.515625 680.761719 L 506.417969 597.167969 C 514.914062 573.039062 496.5625 548.230469 471.417969 548.910156 L 382.722656 551.289062 C 346.703125 552.308594 331.410156 505.753906 361.3125 485.023438 L 434.375 434.730469 C 455.445312 420.457031 455.445312 389.195312 434.375 374.921875 L 361.3125 324.96875 C 331.410156 304.578125 346.703125 257.683594 382.722656 258.703125 L 471.417969 261.082031 C 496.902344 261.761719 515.253906 236.613281 506.417969 212.824219 L 476.515625 129.230469 C 464.28125 95.246094 504.039062 66.363281 532.925781 88.449219 L 603.269531 142.484375 C 623.316406 158.113281 652.882812 148.597656 660.019531 124.132812 L 685.164062 39.175781 C 695.359375 4.515625 744.632812 4.515625 754.828125 39.175781 L 779.976562 124.132812 C 787.113281 148.597656 816.675781 158.113281 836.726562 142.484375 L 907.070312 88.449219 C 935.617188 66.363281 975.375 95.246094 963.480469 129.230469 L 933.578125 212.824219 C 925.082031 236.953125 943.429688 261.761719 968.578125 261.082031 L 1057.273438 258.703125 C 1093.292969 257.683594 1108.585938 304.238281 1078.679688 324.96875 L 1005.617188 375.261719 C 984.550781 389.535156 984.550781 420.796875 1005.617188 435.070312 L 1078.679688 485.363281 C 1108.585938 505.414062 1093.632812 552.308594 1057.273438 551.289062 Z M 1057.273438 551.289062 " fill-opacity="1" fill-rule="nonzero"/><path fill="#b0aeae" d="M 1079.699219 483.664062 L 1006.636719 433.371094 C 997.125 426.914062 991.6875 416.378906 991.6875 404.824219 C 991.6875 393.273438 997.125 382.738281 1006.636719 376.28125 L 1079.699219 325.988281 C 1093.972656 316.132812 1099.75 299.480469 1094.3125 282.828125 C 1088.875 266.519531 1074.261719 255.984375 1057.273438 256.664062 L 968.578125 259.042969 C 957.023438 259.382812 946.488281 254.285156 939.691406 244.769531 C 932.898438 235.253906 931.199219 223.699219 934.9375 212.824219 L 964.839844 129.230469 C 970.617188 112.917969 965.179688 95.925781 951.246094 85.730469 C 937.316406 75.539062 919.304688 75.878906 905.710938 86.410156 L 835.367188 140.445312 C 826.191406 147.578125 814.636719 149.617188 803.765625 145.878906 C 792.890625 142.144531 784.734375 133.988281 781.335938 122.773438 L 756.1875 37.816406 C 751.429688 21.164062 737.160156 10.632812 719.828125 10.632812 C 702.496094 10.632812 688.222656 21.164062 683.464844 37.816406 L 658.320312 122.773438 C 654.921875 133.988281 646.765625 142.144531 635.890625 145.878906 C 625.015625 149.617188 613.464844 147.578125 604.289062 140.445312 L 533.945312 87.089844 C 520.351562 76.558594 502.339844 76.21875 488.40625 86.410156 C 474.476562 96.605469 469.039062 113.597656 474.816406 129.910156 L 504.71875 213.503906 C 508.457031 224.378906 506.757812 235.933594 499.960938 245.449219 C 493.164062 254.964844 482.632812 260.0625 471.078125 259.722656 L 382.382812 257.34375 C 365.050781 257.003906 350.441406 267.199219 345.34375 283.507812 C 339.90625 299.820312 345.683594 316.8125 359.953125 326.667969 L 433.015625 376.960938 C 442.53125 383.417969 447.96875 393.953125 447.96875 405.503906 C 447.96875 417.058594 442.53125 427.59375 433.015625 434.050781 L 360.292969 483.664062 C 346.023438 493.519531 340.246094 510.171875 345.683594 526.824219 C 351.121094 543.132812 365.730469 553.328125 382.722656 552.988281 L 471.417969 550.609375 C 482.972656 550.269531 493.503906 555.367188 500.300781 564.882812 C 507.097656 574.398438 508.796875 585.953125 505.058594 596.828125 L 475.15625 680.421875 C 469.378906 696.734375 474.816406 713.726562 488.746094 723.921875 C 502.679688 734.113281 520.691406 733.773438 534.285156 723.242188 L 604.628906 669.207031 C 613.804688 662.074219 625.355469 660.035156 636.230469 663.773438 C 647.105469 667.507812 655.261719 675.664062 658.660156 686.878906 L 683.804688 771.835938 C 688.5625 788.488281 702.835938 799.019531 720.167969 799.019531 C 737.5 799.019531 751.769531 788.488281 756.527344 771.835938 L 781.675781 686.878906 C 785.074219 675.664062 793.230469 667.507812 804.105469 663.773438 C 814.976562 660.035156 826.53125 662.074219 835.707031 669.207031 L 906.050781 723.242188 C 919.644531 733.773438 937.65625 734.113281 951.585938 723.921875 C 965.519531 713.726562 970.957031 696.734375 965.179688 680.421875 L 935.277344 596.828125 C 931.539062 585.953125 933.238281 574.398438 940.03125 564.882812 C 946.828125 555.367188 957.363281 550.269531 968.917969 550.609375 L 1057.613281 552.988281 C 1074.941406 553.328125 1089.554688 543.132812 1094.652344 526.824219 C 1099.75 510.171875 1093.972656 493.519531 1079.699219 483.664062 Z M 1091.253906 525.804688 C 1086.496094 540.753906 1072.902344 549.929688 1057.613281 549.589844 L 968.917969 547.210938 C 956.34375 546.871094 944.449219 552.648438 937.316406 562.84375 C 929.839844 573.039062 928.140625 585.953125 932.21875 597.847656 L 962.121094 681.441406 C 967.21875 696.394531 962.460938 711.6875 949.886719 720.863281 C 937.316406 730.035156 921.003906 729.699219 908.429688 720.183594 L 838.085938 666.148438 C 828.230469 658.675781 814.976562 656.296875 803.085938 660.035156 C 791.191406 663.773438 782.015625 673.285156 778.277344 685.519531 L 753.128906 770.476562 C 748.710938 785.429688 735.800781 795.28125 719.828125 795.28125 C 704.195312 795.28125 691.28125 785.429688 686.863281 770.476562 L 661.71875 685.519531 C 658.320312 673.625 648.804688 664.113281 636.910156 660.035156 C 633.171875 658.675781 629.09375 658.335938 625.015625 658.335938 C 616.859375 658.335938 608.707031 661.054688 601.910156 666.148438 L 531.566406 720.183594 C 518.992188 729.699219 503.019531 730.035156 490.105469 720.863281 C 477.535156 711.6875 472.777344 696.054688 477.875 681.441406 L 507.777344 597.847656 C 511.855469 585.953125 510.15625 573.039062 502.679688 562.84375 C 495.203125 552.648438 483.3125 546.871094 471.078125 547.210938 L 382.382812 549.589844 C 366.75 549.929688 353.5 540.753906 348.742188 525.804688 C 343.984375 510.851562 349.082031 495.558594 361.992188 486.722656 L 435.394531 436.429688 C 445.589844 429.292969 452.046875 417.738281 452.046875 405.164062 C 452.046875 392.59375 445.929688 381.039062 435.394531 373.902344 L 361.992188 323.609375 C 349.082031 314.773438 343.984375 299.480469 348.742188 284.527344 C 353.5 269.578125 366.75 260.0625 382.382812 260.742188 L 471.078125 263.121094 C 483.652344 263.460938 495.542969 257.683594 502.679688 247.488281 C 509.816406 237.292969 511.855469 224.378906 507.777344 212.484375 L 477.875 128.890625 C 472.777344 113.9375 477.535156 98.644531 490.105469 89.46875 C 502.679688 80.296875 518.992188 80.636719 531.566406 90.148438 L 602.25 143.84375 C 612.105469 151.316406 625.355469 153.695312 637.25 149.957031 C 649.144531 146.21875 658.320312 136.707031 662.058594 124.472656 L 687.203125 39.515625 C 691.621094 24.5625 704.535156 14.710938 720.167969 14.710938 C 735.800781 14.710938 748.710938 24.5625 753.46875 39.515625 L 778.617188 124.472656 C 782.015625 136.367188 791.53125 145.878906 803.425781 149.957031 C 815.316406 153.695312 828.230469 151.65625 838.425781 143.84375 L 908.769531 89.808594 C 921.34375 80.296875 937.316406 79.957031 950.226562 89.128906 C 962.800781 98.304688 967.898438 113.9375 962.460938 128.550781 L 932.558594 212.144531 C 928.480469 224.039062 930.179688 236.953125 937.65625 247.148438 C 945.128906 257.34375 957.023438 263.121094 969.257812 262.78125 L 1057.953125 260.402344 C 1073.582031 260.0625 1086.835938 269.238281 1091.59375 284.1875 C 1096.351562 299.140625 1091.253906 314.433594 1078.339844 323.269531 L 1005.277344 373.5625 C 995.085938 380.699219 988.628906 392.253906 988.628906 404.828125 C 988.628906 417.398438 994.746094 428.953125 1005.277344 436.089844 L 1078.339844 486.382812 C 1090.914062 495.21875 1096.011719 510.851562 1091.253906 525.804688 Z M 1091.253906 525.804688 " fill-opacity="1" fill-rule="nonzero"/></svg>